<svg width="303" height="254" viewBox="0 0 303 254" fill="none" xmlns="http://www.w3.org/2000/svg">
<path d="M181.469 63.2041C181.469 63.2041 178.902 61.6635 176.505 64.4024C176.505 64.4024 172.225 58.3215 154.08 63.5874C154.08 63.5874 156.476 68.1685 158.188 68.1685C159.9 68.1685 154.936 76.043 150.314 75.7006C150.314 75.7006 142.439 87.1699 148.431 98.2968C154.336 109.264 158.578 112.747 164.436 105.634C164.615 105.413 164.816 105.21 165.034 105.028C166.719 103.639 174.176 97.8629 176.819 102.17C177.382 103.126 177.543 104.267 177.267 105.342C176.061 110.395 170.42 129.005 154.08 121.578C154.08 121.578 135.038 114.437 139.529 97.5209C140.01 95.8003 140.706 94.1476 141.602 92.6023C142.466 91.0237 142.999 89.2853 143.167 87.4936C143.335 85.7019 143.136 83.8948 142.581 82.1829C141.893 79.7424 140.34 77.6358 138.212 76.2561C136.15 74.9695 133.431 74.3943 131.371 77.9919C130.518 79.4886 130.069 81.1809 130.067 82.9033C130.063 84.4798 130.356 86.4133 131.655 87.3411L130.067 90.4224C129.203 88.6648 128.098 87.0363 126.785 85.5838C124.585 83.356 123.172 80.4716 122.76 77.3682C122.179 72.4451 122.879 65.0943 128.745 56.528C128.745 56.528 136.619 40.7791 151.341 41.1215C166.063 41.4638 178.73 45.401 181.469 63.2041Z" fill="#020288"/>
<path d="M156.819 83.7462C159.376 83.1613 162.004 82.9448 164.622 83.1033C165.941 83.1688 167.25 83.3673 168.529 83.6958C169.834 83.9759 171.047 84.5822 172.054 85.458C170.891 84.9179 169.649 84.5681 168.375 84.4219C167.117 84.241 165.847 84.1094 164.566 84.0521C162.006 83.8933 159.433 83.881 156.819 83.7462ZM181.469 83.5018C180.533 83.7864 179.666 84.2638 178.926 84.9032C178.574 85.193 178.288 85.5535 178.086 85.9613C177.884 86.3691 177.769 86.815 177.751 87.2699C177.82 88.2031 178.065 89.115 178.472 89.9574L179.591 92.7095C180.427 94.5716 180.912 96.5714 181.023 98.6091C181.021 99.146 180.923 99.6781 180.732 100.18C180.527 100.688 180.192 101.133 179.761 101.471C178.885 102.023 177.85 102.268 176.819 102.17C177.786 102.087 178.706 101.719 179.463 101.112C179.773 100.781 180.007 100.386 180.149 99.9544C180.29 99.523 180.335 99.0658 180.281 98.615C180.207 97.6619 180.014 96.7218 179.705 95.817C179.417 94.8902 179.073 93.9719 178.707 93.0569C178.355 92.1353 177.974 91.2188 177.632 90.2749C177.468 89.7984 177.302 89.3233 177.173 88.8208C177.013 88.3014 176.959 87.7551 177.014 87.2143C177.071 86.6766 177.246 86.158 177.527 85.6958C177.808 85.2335 178.187 84.8389 178.638 84.5401C179.485 83.9733 180.456 83.6173 181.469 83.5018Z" fill="#020288"/>
<path d="M181.469 63.2041C181.79 65.1229 182.028 67.0519 182.185 68.9913C182.363 70.9276 182.473 72.8697 182.515 74.8175C182.545 76.7652 182.516 78.7164 182.364 80.6689C182.275 82.6593 181.83 84.6176 181.052 86.4513C181.04 86.4741 181.026 86.4952 181.009 86.5139C180.408 87.1607 179.844 87.8409 179.319 88.5511C179.059 88.9069 178.828 89.2828 178.627 89.6753C178.404 90.0574 178.315 90.5031 178.373 90.9417C178.236 90.5004 178.261 90.0245 178.443 89.5999C178.601 89.1717 178.792 88.7568 179.016 88.3591C179.463 87.5664 179.98 86.815 180.56 86.114L180.518 86.1763C180.849 85.3004 181.07 84.3866 181.175 83.456C181.324 82.5172 181.383 81.5586 181.454 80.6032C181.567 78.6856 181.587 76.7564 181.598 74.8261C181.598 70.9626 181.513 67.092 181.469 63.2041ZM171.198 96.7561C171.018 97.1277 170.872 97.5151 170.762 97.9135C170.651 98.2815 170.626 98.6704 170.691 99.0495C170.744 99.4251 170.908 99.7763 171.162 100.058C171.431 100.369 171.73 100.653 172.054 100.906C171.847 100.844 171.643 100.771 171.444 100.687C171.25 100.58 171.067 100.454 170.898 100.311C170.545 100.005 170.307 99.5882 170.223 99.1285C170.162 98.6733 170.231 98.2103 170.419 97.7916C170.595 97.3907 170.862 97.0362 171.198 96.7561ZM131.655 87.341C132.247 88.0847 132.72 88.9163 133.056 89.8058C133.236 90.2598 133.366 90.7321 133.444 91.2143C133.486 91.467 133.503 91.7233 133.494 91.9794L133.489 92.1765L133.501 92.2834C133.496 92.353 133.512 92.4225 133.545 92.4838C133.692 92.797 133.951 93.0433 134.271 93.174C134.651 93.3683 135.052 93.5201 135.466 93.6264C136.345 93.8634 137.249 93.9946 138.16 94.0172C137.26 94.3697 136.286 94.4862 135.329 94.3559C134.829 94.305 134.34 94.1797 133.878 93.984C133.606 93.8785 133.357 93.7202 133.147 93.5182C132.936 93.3162 132.768 93.0746 132.651 92.8071C132.59 92.6565 132.559 92.4949 132.563 92.3323L132.559 92.0921L132.567 91.942C132.577 91.7349 132.573 91.5274 132.553 91.321C132.515 90.8824 132.446 90.447 132.348 90.0179C132.154 89.1384 131.898 88.2541 131.655 87.341ZM130.067 90.4223C129.684 91.8069 129.146 93.1434 128.461 94.4059C127.791 95.6871 126.981 96.8906 126.048 97.9948C125.114 99.1198 124.006 100.088 122.766 100.864C121.524 101.634 120.101 102.067 118.64 102.119C119.977 101.717 121.234 101.084 122.353 100.248C123.447 99.4056 124.444 98.4433 125.324 97.3788C126.228 96.3156 127.064 95.1962 127.826 94.0274C128.593 92.8531 129.356 91.6625 130.067 90.4223ZM142.611 130.479C143.692 130.005 144.715 129.406 145.658 128.696C146.594 127.997 147.482 127.236 148.316 126.417C149.176 125.624 149.947 124.736 150.747 123.867L151.913 122.521C152.293 122.062 152.671 121.599 153.089 121.156C152.85 121.711 152.573 122.248 152.297 122.787C151.984 123.302 151.676 123.826 151.332 124.324C150.638 125.324 149.848 126.254 148.975 127.102C148.098 127.957 147.119 128.701 146.06 129.316C145.01 129.954 143.832 130.351 142.611 130.479Z" fill="#020288"/>
<path d="M125.485 97.6861C124.633 96.4237 123.579 95.3101 122.366 94.3898C122.113 94.1667 121.807 94.0126 121.478 93.9427C121.148 93.8728 120.806 93.8893 120.484 93.9907C119.917 94.3764 119.509 94.9561 119.338 95.6209C119.105 96.3298 118.936 97.0586 118.835 97.7983C118.784 98.1661 118.739 98.5489 118.706 98.9028C118.708 99.2396 118.737 99.6355 118.771 100.004C118.918 101.513 119.198 103.007 119.607 104.468C120.361 107.439 121.531 110.289 123.084 112.933C124.657 115.576 126.539 118.022 128.689 120.22C129.768 121.311 130.889 122.361 132.027 123.385C133.208 124.359 134.337 125.406 135.567 126.301C136.16 126.78 136.814 127.169 137.434 127.608C138.09 127.985 138.719 128.413 139.403 128.733C140.723 129.451 142.127 130.001 143.583 130.372C146.491 131.143 149.581 130.819 152.266 129.461C154.963 128.021 157.229 125.889 158.831 123.284C158.837 123.273 158.847 123.264 158.859 123.261C158.871 123.257 158.884 123.258 158.895 123.264C158.905 123.27 158.913 123.28 158.917 123.292C158.921 123.303 158.92 123.316 158.915 123.327C157.522 126.156 155.333 128.515 152.617 130.116C151.225 130.905 149.695 131.418 148.109 131.628C146.518 131.816 144.907 131.713 143.353 131.325C141.81 130.959 140.325 130.381 138.939 129.609C138.232 129.258 137.589 128.803 136.918 128.397C136.288 127.933 135.622 127.515 135.024 127.012C133.771 126.071 132.675 124.972 131.516 123.94C130.924 123.437 130.423 122.836 129.881 122.283C129.358 121.71 128.791 121.178 128.306 120.572C126.279 118.229 124.439 115.732 122.801 113.102C121.134 110.473 119.806 107.644 118.849 104.681C118.382 103.182 118.077 101.638 117.939 100.074C117.913 99.6732 117.889 99.2994 117.898 98.8648C117.944 98.4529 117.999 98.0698 118.062 97.6758C118.188 96.8894 118.387 96.1163 118.655 95.3664C118.775 94.9525 118.977 94.5668 119.248 94.2318C119.52 93.8967 119.855 93.619 120.235 93.4149C120.661 93.2475 121.134 93.2379 121.567 93.3879C121.961 93.5228 122.329 93.7242 122.655 93.9834C123.851 95.0027 124.84 96.2432 125.566 97.6368C125.569 97.6422 125.571 97.6482 125.572 97.6544C125.573 97.6606 125.572 97.6668 125.571 97.6729C125.569 97.6789 125.566 97.6845 125.562 97.6895C125.559 97.6944 125.554 97.6985 125.548 97.7016C125.538 97.707 125.525 97.7084 125.514 97.7056C125.502 97.7027 125.492 97.6958 125.485 97.6861ZM81.4155 110.622C82.6622 110.976 83.7936 111.652 84.6952 112.583C85.6244 113.499 86.3675 114.586 86.8835 115.784C87.4007 116.976 87.6915 118.253 87.7411 119.551C87.7658 120.19 87.7331 120.83 87.6432 121.463C87.5344 122.091 87.3683 122.708 87.1471 123.306C86.9252 122.687 86.8251 122.09 86.6622 121.507C86.4872 120.927 86.3823 120.35 86.1879 119.798C85.8777 118.702 85.4975 117.627 85.0495 116.58C84.6 115.539 84.0745 114.533 83.4773 113.569C82.8517 112.545 82.1632 111.561 81.4155 110.622ZM85.7776 134.588C86.1629 139.027 86.3508 143.465 86.4694 147.902C86.6004 152.34 86.6144 156.777 86.6058 161.213C86.5598 165.65 86.4887 170.086 86.3012 174.521C86.1262 178.957 85.8801 183.392 85.4352 187.826C85.0475 183.387 84.8585 178.949 84.7405 174.511C84.61 170.074 84.596 165.637 84.607 161.2C84.6555 156.764 84.7266 152.328 84.9147 147.892C85.0903 143.457 85.3353 139.021 85.7776 134.588ZM177.326 105.261C180.989 107.553 184.584 109.939 188.112 112.421C189.878 113.661 191.629 114.922 193.366 116.206L195.951 118.181C196.404 118.521 196.831 118.894 197.228 119.299L197.842 119.94L198.359 120.595C199.699 122.323 200.921 124.139 202.017 126.03C203.122 127.894 204.197 129.77 205.242 131.659C207.308 135.452 209.436 139.204 211.625 142.913C212.72 144.769 213.836 146.612 214.973 148.444L216.673 151.19C217.177 152.088 217.776 152.929 218.46 153.699C219.184 154.409 220.047 155.114 220.798 155.998C221.687 156.924 222.222 158.134 222.31 159.414C222.243 160.728 221.671 161.964 220.714 162.866C220.304 163.279 219.874 163.671 219.425 164.04C219.022 164.365 218.631 164.705 218.248 165.057C217.479 165.764 216.771 166.506 216.051 167.305C215.318 168.115 214.559 168.901 213.788 169.678C212.233 171.23 210.582 172.684 208.845 174.029C207.073 175.401 205.145 176.557 203.1 177.472C202.028 177.926 200.901 178.238 199.748 178.4C198.537 178.58 197.301 178.472 196.139 178.086C195.954 178.03 195.796 177.908 195.696 177.742L195.69 177.732C194.939 176.488 194.117 175.248 193.286 174.035C192.456 172.816 191.586 171.626 190.677 170.465C189.764 169.314 188.789 168.213 187.756 167.169C186.761 166.094 185.542 165.251 184.186 164.699L184.178 164.697C184.154 164.688 184.135 164.671 184.123 164.649C184.111 164.626 184.108 164.6 184.115 164.576C184.122 164.552 184.137 164.531 184.159 164.517C184.18 164.504 184.206 164.5 184.231 164.505C185.713 164.887 187.083 165.615 188.229 166.629C189.405 167.58 190.506 168.619 191.524 169.737C193.57 171.952 195.45 174.315 197.149 176.807L196.7 176.453C198.604 176.841 200.584 176.553 202.299 175.638C204.171 174.746 205.93 173.635 207.541 172.328C209.21 171.033 210.805 169.646 212.321 168.173C213.087 167.44 213.846 166.696 214.579 165.928C215.323 165.146 216.124 164.348 216.962 163.62C217.383 163.254 217.815 162.898 218.26 162.558C218.664 162.221 219.047 161.933 219.385 161.59C220.04 161.026 220.468 160.243 220.589 159.387C220.537 158.499 220.183 157.655 219.585 156.996C218.973 156.208 218.199 155.494 217.448 154.636C217.25 154.412 217.065 154.178 216.893 153.933L216.46 153.199L215.68 151.768L214.155 148.913C213.149 147.005 212.122 145.111 211.073 143.231C208.968 139.472 206.751 135.776 204.348 132.201C201.967 128.632 199.55 125.017 196.97 121.719L196.482 121.11L195.974 120.59C195.625 120.217 195.247 119.872 194.842 119.56L192.328 117.562L187.252 113.577C183.861 110.923 180.513 108.205 177.209 105.423C177.189 105.407 177.177 105.384 177.173 105.359C177.17 105.333 177.177 105.308 177.192 105.287C177.207 105.267 177.229 105.253 177.254 105.248C177.279 105.243 177.305 105.248 177.326 105.261V105.261Z" fill="#020288"/>
<path d="M190.713 137.555C188.963 144.133 187.31 150.728 185.929 157.349C185.219 160.631 184.723 163.955 184.444 167.301C184.35 168.91 184.34 170.686 184.199 172.408C184.061 174.164 183.767 175.904 183.321 177.608C182.27 180.975 180.586 184.111 178.36 186.848C177.331 188.22 176.241 189.547 175.22 190.88C174.729 191.542 174.231 192.198 173.79 192.907C173.317 193.59 172.89 194.308 172.465 195.029C170.79 197.956 169.293 200.981 167.981 204.088C166.597 207.182 165.403 210.361 164.237 213.561C165.722 206.873 168.027 200.394 171.1 194.272C171.894 192.724 172.803 191.238 173.819 189.827C174.827 188.432 175.861 187.102 176.834 185.726C178.882 183.152 180.429 180.216 181.395 177.072C181.824 175.488 182.112 173.87 182.254 172.236C182.413 170.57 182.408 168.943 182.561 167.16C182.918 163.734 183.537 160.339 184.412 157.007C186.091 150.394 188.196 143.896 190.713 137.555ZM266.158 226.638C265.76 226.638 265.378 226.481 265.097 226.2C264.815 225.918 264.657 225.537 264.657 225.139C264.656 224.741 264.814 224.36 265.095 224.078C265.376 223.797 265.758 223.638 266.156 223.638L301.074 223.592H301.075C301.272 223.592 301.468 223.631 301.65 223.706C301.832 223.781 301.997 223.892 302.136 224.031C302.276 224.17 302.386 224.335 302.462 224.517C302.537 224.699 302.576 224.894 302.576 225.091C302.577 225.288 302.538 225.483 302.463 225.665C302.387 225.847 302.277 226.013 302.138 226.152C301.999 226.292 301.833 226.402 301.651 226.478C301.469 226.553 301.274 226.592 301.077 226.592L266.159 226.638H266.158Z" fill="#020288"/>
<path d="M44.027 225.643L0 226.059L0.0283263 229.059L44.0554 228.643L44.027 225.643Z" fill="#020288"/>
<path d="M166.063 90.137C166.433 90.1242 166.783 89.9683 167.04 89.7022C167.297 89.4361 167.441 89.0805 167.441 88.7105C167.441 88.3404 167.297 87.9849 167.04 87.7187C166.783 87.4526 166.433 87.2967 166.063 87.2839C165.693 87.2967 165.342 87.4526 165.085 87.7187C164.828 87.9849 164.685 88.3404 164.685 88.7105C164.685 89.0805 164.828 89.4361 165.085 89.7022C165.342 89.9683 165.693 90.1242 166.063 90.137ZM203.817 238.02C208.859 241.457 214.532 243.859 220.508 245.088C223.476 245.66 226.5 245.877 229.519 245.734C232.531 245.571 235.514 245.065 238.411 244.225C244.196 242.463 249.655 239.767 254.569 236.242C255.803 235.409 256.969 234.481 258.056 233.464C259.142 232.435 260.164 231.341 261.118 230.189C263.026 227.884 264.676 225.378 266.04 222.715L265.944 223.119L265.945 223.109L265.945 223.088C265.947 222.956 265.979 222.825 266.039 222.707C267.218 220.392 268.181 217.974 268.916 215.483C269.647 212.98 270.119 210.409 270.325 207.81L270.329 207.756L270.335 207.721C270.35 207.67 270.332 207.694 270.349 207.787L270.341 207.63C270.751 202.369 270.012 197.082 268.173 192.136C266.295 187.198 263.387 182.717 259.643 178.99C255.942 175.327 251.545 172.443 246.711 170.508C241.877 168.573 236.704 167.627 231.498 167.725C226.292 167.823 221.158 168.963 216.4 171.079C211.643 173.195 207.357 176.242 203.797 180.042C200.227 183.856 197.448 188.339 195.621 193.234C193.801 198.192 192.955 203.455 193.131 208.733C193.131 208.747 193.129 208.76 193.124 208.773C193.119 208.786 193.112 208.797 193.103 208.807C193.093 208.817 193.082 208.825 193.07 208.83C193.058 208.836 193.044 208.839 193.031 208.839C193.005 208.839 192.98 208.83 192.96 208.812C192.941 208.795 192.928 208.771 192.925 208.745C192.288 203.392 192.8 197.964 194.426 192.823C196.064 187.629 198.784 182.84 202.407 178.773C206.04 174.674 210.493 171.384 215.478 169.115C220.473 166.852 225.894 165.68 231.378 165.679C236.826 165.625 242.225 166.719 247.223 168.888C252.221 171.058 256.706 174.256 260.387 178.273C264.032 182.237 266.875 186.871 268.758 191.917C270.638 196.972 271.546 202.337 271.435 207.729L271.427 207.572C271.449 207.693 271.447 207.817 271.421 207.938L271.431 207.849C271.358 210.551 271.003 213.239 270.373 215.868C269.752 218.508 268.841 221.071 267.657 223.512L267.751 223.109L267.751 223.119C267.753 223.253 267.723 223.386 267.664 223.507L267.655 223.524C266.271 226.338 264.539 228.969 262.502 231.353C261.489 232.547 260.404 233.678 259.254 234.741C258.084 235.792 256.837 236.754 255.524 237.62C250.432 241.196 244.766 243.874 238.77 245.538C232.747 247.174 226.417 247.329 220.321 245.989C214.305 244.555 208.648 241.9 203.7 238.19C203.678 238.174 203.664 238.15 203.659 238.124C203.655 238.097 203.661 238.07 203.676 238.048C203.691 238.026 203.714 238.01 203.741 238.005C203.767 238 203.794 238.005 203.817 238.02L203.817 238.02Z" fill="#020288"/>
<path d="M212.638 171.949C212.364 172.685 212.133 173.43 211.9 174.172C211.673 174.916 211.45 175.659 211.25 176.408C211.027 177.148 210.847 177.902 210.671 178.657L210.091 180.9L210.121 180.712C210.118 180.797 210.102 180.881 210.072 180.961C210.036 181.058 209.98 181.147 209.909 181.222C209.837 181.297 209.751 181.357 209.656 181.399C209.56 181.44 209.458 181.462 209.354 181.463L210.083 180.909C209.661 183.081 209.141 185.218 208.698 187.376C208.292 189.542 207.883 191.709 207.541 193.891C207.184 196.071 206.831 198.253 206.532 200.452C206.192 202.646 205.87 204.85 205.488 207.059C205.288 204.827 205.222 202.585 205.29 200.345C205.328 198.103 205.482 195.864 205.75 193.638C206.03 191.414 206.367 189.191 206.856 186.998C207.079 185.897 207.378 184.811 207.685 183.729C207.994 182.648 208.279 181.561 208.613 180.49L209.342 179.936C209.241 179.937 209.141 179.958 209.048 179.999C208.955 180.039 208.871 180.098 208.801 180.171C208.732 180.245 208.678 180.331 208.642 180.426C208.613 180.503 208.597 180.584 208.595 180.667L208.624 180.479C209.177 178.999 209.687 177.514 210.343 176.076C210.98 174.633 211.748 173.252 212.638 171.949ZM251.452 171.949C252.815 174.295 253.941 176.771 254.813 179.34C255.297 180.612 255.64 181.924 256.058 183.218C256.429 184.524 256.738 185.846 257.078 187.162C258.264 192.463 259.026 197.85 259.357 203.272C259.698 208.682 259.703 214.109 259.369 219.52C259.204 222.221 258.9 224.912 258.642 227.6C258.227 230.276 257.868 232.952 257.391 235.61C257.435 232.903 257.607 230.217 257.703 227.527L257.871 219.467C257.858 218.124 257.851 216.783 257.861 215.442L257.867 213.431L257.796 211.422L257.689 207.405L257.441 203.398C257.123 198.056 256.514 192.736 255.615 187.46L254.843 183.522C254.533 182.223 254.284 180.901 253.918 179.615C253.297 176.999 252.473 174.436 251.452 171.949ZM231.168 224.779C231.786 224.158 232.312 223.451 232.728 222.679C232.718 223.579 232.698 224.469 232.678 225.369C232.548 231.869 232.298 238.369 231.928 244.869C231.558 238.369 231.308 231.869 231.178 225.369C231.178 225.169 231.168 224.979 231.168 224.779ZM231.438 218.349C231.438 218.349 232.098 217.559 232.818 216.519C232.808 217.529 232.798 218.549 232.778 219.559C232.432 219.057 231.973 218.643 231.438 218.349ZM232.888 204.899V206.819L232.858 211.529C232.226 211.581 231.602 211.705 230.998 211.899C230.988 210.199 230.978 208.509 230.968 206.819V204.899C231.008 192.209 231.188 179.529 231.928 166.839C232.658 179.529 232.848 192.209 232.888 204.899Z" fill="#020288"/>
<path d="M196.462 189.604C202.017 187.135 207.832 185.296 213.797 184.122C219.771 182.901 225.848 182.255 231.944 182.194C234.995 182.104 238.04 182.348 241.084 182.518C242.599 182.687 244.11 182.907 245.621 183.1C246.376 183.206 247.134 183.284 247.885 183.413L250.122 183.894C256.086 185.091 261.884 187.009 267.386 189.604C265.926 189.188 264.477 188.756 263.039 188.307L260.881 187.644C260.159 187.434 259.412 187.308 258.68 187.136L254.293 186.114C252.82 185.833 251.333 185.62 249.857 185.369L247.64 185.006C246.898 184.908 246.151 184.849 245.406 184.769C243.916 184.625 242.429 184.453 240.939 184.331C237.947 184.221 234.961 183.993 231.965 184.114C225.97 184.166 219.986 184.66 214.063 185.591L209.623 186.36C208.154 186.671 206.674 186.947 205.208 187.287C202.26 187.913 199.355 188.713 196.462 189.604ZM231.038 228.019L240.235 226.833C243.278 226.403 246.314 225.948 249.33 225.401C252.351 224.882 255.36 224.269 258.363 223.625C259.85 223.251 261.351 222.913 262.86 222.581L263.998 222.347L265.116 222.056C265.864 221.865 266.622 221.688 267.388 221.519C266.699 221.876 266.002 222.222 265.296 222.557C264.597 222.903 263.879 223.211 263.146 223.479C261.69 224.027 260.226 224.569 258.748 225.074C255.771 226.008 252.736 226.748 249.664 227.291C243.522 228.424 237.249 228.669 231.038 228.019ZM192.918 205.859C194.888 205.739 196.858 205.639 198.828 205.559C198.291 205.703 197.763 205.88 197.248 206.089C195.798 206.019 194.358 205.939 192.918 205.859ZM270.938 205.859C264.438 206.229 257.938 206.479 251.438 206.609C245.248 206.749 239.068 206.799 232.888 206.819H230.968C230.188 206.819 229.418 206.809 228.638 206.809C228.718 205.979 228.308 205.429 227.148 205.369C226.127 205.341 225.128 205.674 224.328 206.309C224.148 206.449 223.948 206.599 223.718 206.769C217.648 206.729 211.581 206.613 205.518 206.419C205.493 206.204 205.426 205.995 205.319 205.807C205.213 205.618 205.069 205.452 204.898 205.319C213.588 205.019 222.278 204.929 230.968 204.899H232.888C239.068 204.919 245.248 204.969 251.438 205.109C257.938 205.229 264.438 205.479 270.938 205.859Z" fill="#020288"/>
<path d="M209.358 180.69C209.358 180.691 209.358 180.692 209.357 180.693C209.357 180.695 209.356 180.696 209.355 180.697C209.354 180.698 209.353 180.698 209.352 180.699C209.35 180.699 209.349 180.7 209.348 180.7C208.422 182.448 207.701 184.296 207.198 186.21C207.188 186.23 207.188 186.26 207.178 186.28C206.428 189.17 206.798 189.7 205.808 192.549C205.248 194.16 204.748 195.089 205.028 196.42C205.294 197.257 205.632 198.07 206.038 198.85C206.158 199.1 206.278 199.37 206.418 199.67C207.108 201.19 207.278 201.549 207.128 202.01C206.938 202.57 206.498 202.64 205.688 203.13C205.402 203.296 205.131 203.487 204.878 203.7C204.398 204.061 203.955 204.469 203.558 204.92C200.56 204.888 197.608 205.658 195.008 207.15C194.388 207.5 193.718 207.85 192.998 208.22H192.988C192.958 207.79 192.948 207.36 192.928 206.93C192.918 206.57 192.918 206.22 192.918 205.86C192.911 200.248 194.118 194.701 196.458 189.6L196.468 189.59H196.478C197.418 187.523 198.543 185.545 199.838 183.68C204.188 179.44 208.878 177.24 210.438 177.25C210.607 177.234 210.775 177.284 210.908 177.39C211.258 177.74 210.418 178.7 209.358 180.69ZM270.938 205.86C270.938 206.19 270.938 206.52 270.918 206.85C270.918 207.13 270.898 207.4 270.888 207.68C270.888 207.73 270.878 207.78 270.878 207.83C270.876 208.12 270.859 208.411 270.828 208.7C270.475 213.697 269.154 218.577 266.938 223.07C266.91 223.087 266.879 223.1 266.848 223.11V223.12C266.586 223.244 266.306 223.325 266.018 223.36C265.682 223.394 265.342 223.356 265.021 223.249C264.7 223.142 264.406 222.969 264.158 222.74C264.148 222.73 264.138 222.71 264.118 222.7C263.308 221.81 263.958 220.57 263.698 218.71C263.478 217.17 262.668 216.08 261.058 213.91C260.357 212.913 259.574 211.976 258.718 211.11C258.128 210.54 257.578 210.19 257.188 210.35C256.698 210.57 256.548 211.61 256.728 212.37C256.998 213.51 257.918 213.61 258.118 214.53C258.388 215.74 257.158 217.14 256.108 217.78C255.521 218.174 254.843 218.41 254.139 218.464C253.434 218.519 252.728 218.389 252.088 218.09C250.648 217.25 250.688 215.46 249.918 215.46C249.308 215.47 248.768 216.59 248.678 217.47C248.607 218.02 248.701 218.579 248.949 219.076C249.196 219.572 249.586 219.984 250.068 220.26C251.058 220.68 251.698 219.81 252.858 220.26C253.205 220.374 253.516 220.577 253.76 220.849C254.004 221.121 254.172 221.452 254.248 221.81C254.298 222.76 252.998 223.5 251.308 224.44C249.378 225.51 248.778 225.46 246.508 226.61C246.288 226.72 246.088 226.82 245.898 226.92C245.01 227.328 244.177 227.846 243.418 228.46C241.858 229.74 242.008 230.31 240.478 231.56C239.479 232.487 238.249 233.129 236.918 233.42C235.708 233.62 235.458 233.25 233.358 233.11C232.882 233.075 232.405 233.065 231.928 233.08C231.008 233.092 230.091 233.152 229.178 233.26C228.109 233.365 227.049 233.549 226.008 233.81C231.368 231.08 232.078 226.95 229.848 225.97C229.848 225.97 236.188 221.16 231.438 218.35C231.438 218.35 239.118 209.21 230.448 212.07C229.727 212.317 229.041 212.656 228.408 213.08C228.138 213.25 227.828 213.46 227.478 213.68L226.448 211.06V211.05C228.478 208.29 229.838 205.5 227.148 205.37C226.126 205.342 225.128 205.674 224.328 206.31C223.708 206.78 222.818 207.44 221.698 208.2L219.428 205.86C218.909 205.016 218.591 204.065 218.498 203.08C218.456 201.992 218.641 200.908 219.04 199.896C219.44 198.884 220.045 197.966 220.818 197.2C222.243 195.69 224.067 194.615 226.078 194.1C227.655 193.489 229.359 193.276 231.038 193.48C231.318 193.53 231.618 193.59 231.928 193.67C232.908 193.9 233.918 194.24 234.438 194.41C235.322 194.811 236.263 195.074 237.228 195.19C238.488 195.25 238.838 194.87 239.388 195.19C240.078 195.57 239.968 196.37 240.478 198.28C240.988 200.17 241.408 201.77 242.488 202.15C243.298 202.43 243.738 201.77 244.658 202.15C245.258 202.4 245.258 202.76 246.198 203.7C247.028 204.52 247.448 204.93 248.058 205.09C248.639 205.222 249.247 205.175 249.801 204.953C250.355 204.732 250.828 204.347 251.158 203.85C251.278 203.64 251.498 203.2 251.308 201.38C251.078 199.08 250.968 197.93 250.228 197.2C249.328 196.31 248.628 196.96 246.508 196.27C244.078 195.48 244.258 194.38 241.558 193.33C239.748 192.63 239.268 192.96 237.848 192.09C236.698 191.39 235.238 190.09 235.518 189.3C235.828 188.46 237.828 189.11 238.618 187.91C239.238 186.98 238.378 186.07 239.078 184.81C239.488 184.09 240.338 183.4 240.938 183.58C241.598 183.77 241.348 184.84 242.178 186.21C242.946 187.381 244.093 188.253 245.428 188.68C246.438 189.05 247.688 189.51 248.678 188.84C249.558 188.25 250.048 186.9 249.608 186.21C249.038 185.32 247.308 186.08 246.818 185.28C246.737 185.088 246.696 184.882 246.698 184.674C246.7 184.466 246.744 184.26 246.828 184.07C246.957 183.627 247.193 183.223 247.516 182.893C247.839 182.563 248.238 182.318 248.678 182.18C249.188 182.1 249.708 182.29 252.708 184.81C252.868 184.95 253.028 185.08 253.168 185.2L253.178 185.21C254.768 186.56 255.058 186.86 255.648 186.83C255.843 186.817 256.036 186.773 256.218 186.7C256.534 186.567 256.825 186.381 257.078 186.15C257.785 185.46 258.349 184.638 258.738 183.73C259.248 182.55 259.048 182.07 259.358 181.87C260.078 181.41 262.648 182.95 265.348 185.72C266.104 186.971 266.786 188.267 267.388 189.6C269.35 193.86 270.522 198.441 270.848 203.12C270.878 203.57 270.898 204.03 270.918 204.49C270.928 204.939 270.938 205.4 270.938 205.86ZM156.819 0C157.378 2.27476 157.809 4.57937 158.107 6.90279C158.438 9.21105 158.651 11.5279 158.842 13.8464C158.996 16.1677 159.125 18.4909 159.138 20.8226C159.183 23.1648 159.095 25.5078 158.873 27.84C158.311 25.5657 157.88 23.2611 157.581 20.9374C157.251 18.6291 157.038 16.3123 156.849 13.9935C156.698 11.6721 156.569 9.34894 156.557 7.0172C156.512 4.67507 156.599 2.33225 156.819 0ZM171.238 29.76C171.771 27.3888 172.434 25.0485 173.223 22.7496C173.977 20.45 174.839 18.1941 175.723 15.9467C176.641 13.7132 177.583 11.4891 178.632 9.30849C179.657 7.10415 180.802 4.95805 182.063 2.87999C181.531 5.25187 180.869 7.59261 180.08 9.89151C179.326 12.1909 178.463 14.4468 177.577 16.6933C176.657 18.9259 175.715 21.15 174.665 23.3304C173.64 25.5344 172.496 27.6808 171.238 29.76ZM134.907 5.28C136.145 7.14852 137.271 9.08863 138.28 11.0902C139.313 13.0666 140.238 15.0896 141.143 17.1217C142.013 19.1687 142.861 21.2256 143.602 23.329C144.377 25.432 145.026 27.5795 145.545 29.76C144.305 27.8927 143.178 25.9529 142.17 23.951C141.138 21.9743 140.212 19.9513 139.31 17.9183C138.441 15.8703 137.594 13.8134 136.854 11.7098C136.079 9.60678 135.429 7.45977 134.907 5.28ZM41.7733 167.853C40.8787 167.626 39.968 167.466 39.0493 167.377C38.6144 167.322 38.1727 167.366 37.7574 167.506C37.3642 167.648 37.4882 168.08 37.7059 168.456C38.2136 169.206 38.8216 169.883 39.5127 170.469C40.1868 171.089 40.9015 171.68 41.6274 172.234C41.6927 172.284 41.7356 172.357 41.7465 172.439C41.7575 172.52 41.7356 172.603 41.6858 172.668C41.6521 172.711 41.6081 172.744 41.5579 172.765C41.5076 172.786 41.4529 172.794 41.3988 172.787C39.5069 172.577 37.7245 171.794 36.2904 170.542C35.5636 169.914 34.9602 169.157 34.5115 168.308C34.2745 167.867 34.1054 167.393 34.0098 166.902C33.9544 166.617 33.9602 166.323 34.0269 166.039C34.0761 165.858 34.1657 165.69 34.2891 165.548C34.3273 165.479 34.363 165.456 34.42 165.348C35.2546 163.829 35.9665 162.112 36.6911 160.464L38.8189 155.453C39.5324 153.778 40.2551 152.124 40.8669 150.429C41.4964 148.734 42.0074 147.017 42.5991 145.284L44.3343 140.103C44.9244 138.381 45.6473 136.705 46.2967 135.005C48.8957 128.194 52.2237 121.684 56.2227 115.588C58.2419 112.53 60.6254 109.728 63.3207 107.245C63.661 106.936 63.9926 106.617 64.3407 106.317L65.4314 105.468C66.1547 104.893 66.9125 104.363 67.7004 103.88C69.2823 102.847 71.0309 102.094 72.8691 101.655L72.7666 101.68C75.8917 100.749 79.1154 100.189 82.3713 100.01C85.5916 99.7484 88.817 99.6649 92.0366 99.6618C95.2566 99.6632 98.4741 99.7258 101.689 99.8497C104.904 100.002 108.111 100.195 111.322 100.457L110.985 100.571C112.227 99.2987 113.373 97.9349 114.412 96.4914L116.017 94.3141C116.531 93.518 117.205 92.8376 117.996 92.3163C119.639 91.3802 121.572 91.088 123.419 91.4964C125.223 91.82 126.942 92.51 128.469 93.5236C128.475 93.5276 128.48 93.5327 128.484 93.5388C128.488 93.5448 128.491 93.5516 128.493 93.5587C128.494 93.5659 128.494 93.5732 128.493 93.5804C128.492 93.5876 128.489 93.5944 128.485 93.6005C128.476 93.6122 128.463 93.6203 128.448 93.6231C128.434 93.6259 128.419 93.6232 128.406 93.6156C126.863 92.6947 125.147 92.0991 123.365 91.8654C121.626 91.5701 119.839 91.9053 118.325 92.8107C117.616 93.3123 117.021 93.9577 116.579 94.7048L115.038 96.948C114.013 98.4767 112.86 99.9152 111.591 101.248C111.551 101.288 111.502 101.319 111.449 101.339C111.397 101.359 111.34 101.367 111.283 101.364L111.253 101.362C108.059 101.167 104.852 101.039 101.65 100.953C98.4465 100.852 95.2429 100.799 92.0416 100.814C88.8398 100.823 85.6434 100.955 82.4595 101.154C79.2947 101.291 76.1567 101.796 73.109 102.659L73.0415 102.677L73.0061 102.684C71.3051 103.097 69.6793 103.774 68.1879 104.69C67.4147 105.138 66.6697 105.633 65.9571 106.172L64.8761 106.97C64.5297 107.255 64.1983 107.559 63.8583 107.852C63.1656 108.426 62.5067 109.039 61.885 109.689C61.2665 110.344 60.6072 110.962 60.0205 111.647C58.872 113.038 57.6703 114.392 56.6616 115.898C52.5054 121.851 49.1608 128.331 46.7162 135.167C46.1244 136.883 45.4602 138.571 44.9288 140.305L43.3667 145.516C42.8339 147.239 42.3818 149.031 41.7458 150.745C41.1404 152.476 40.424 154.162 39.73 155.837C39.0384 157.519 38.2957 159.18 37.5597 160.845C36.7985 162.512 36.1052 164.157 35.1681 165.812C35.0913 165.938 35.0043 166.057 34.908 166.169C34.9143 166.225 34.8671 166.188 34.8661 166.278C34.8333 166.439 34.8322 166.605 34.863 166.766C34.9394 167.168 35.0748 167.557 35.2647 167.92C35.6625 168.685 36.1891 169.375 36.8212 169.962C38.1116 171.155 39.7359 171.926 41.4766 172.172L41.248 172.725C40.5159 172.13 39.8163 171.515 39.1437 170.857C38.4453 170.208 37.8432 169.463 37.3555 168.643C37.2297 168.413 37.1553 168.158 37.1372 167.896C37.1376 167.746 37.1841 167.6 37.2703 167.477C37.3565 167.355 37.4784 167.262 37.6193 167.211C38.09 167.067 38.5882 167.037 39.0728 167.123C39.9972 167.261 40.9097 167.469 41.8023 167.746C41.8094 167.748 41.8159 167.751 41.8216 167.756C41.8273 167.76 41.8321 167.766 41.8356 167.772C41.8391 167.779 41.8414 167.786 41.8422 167.793C41.843 167.8 41.8424 167.808 41.8403 167.815C41.8362 167.828 41.8269 167.84 41.8144 167.847C41.802 167.854 41.7873 167.856 41.7733 167.853Z" fill="#020288"/>
<path d="M232.736 216.463C233.176 215.811 233.569 215.128 233.912 214.42C234.08 214.072 234.215 213.708 234.313 213.334C234.429 212.989 234.435 212.617 234.331 212.269C234.261 212.117 234.148 211.989 234.008 211.898C233.867 211.808 233.704 211.759 233.537 211.757C233.164 211.715 232.788 211.727 232.418 211.793C231.655 211.931 230.907 212.143 230.185 212.426C229.47 212.729 228.791 213.111 228.162 213.566C227.503 214.009 226.829 214.434 226.147 214.848C225.463 215.259 224.772 215.66 224.054 216.024C223.328 216.422 222.552 216.723 221.747 216.918C221.672 216.933 221.595 216.924 221.526 216.893C221.456 216.861 221.399 216.808 221.362 216.741C221.325 216.675 221.31 216.598 221.319 216.523C221.328 216.447 221.361 216.377 221.413 216.321L221.43 216.303C223.097 214.567 224.652 212.725 226.083 210.79L225.994 211.059L225.994 211.05C225.993 210.957 226.021 210.866 226.075 210.791L226.082 210.781C226.526 210.157 226.949 209.52 227.322 208.868C227.7 208.258 227.971 207.589 228.124 206.888C228.219 206.206 227.999 205.999 227.307 205.901C226.629 205.843 225.949 205.982 225.348 206.301C225.033 206.466 224.737 206.663 224.463 206.89C224.151 207.135 223.833 207.365 223.515 207.592C222.875 208.044 222.253 208.519 221.598 208.953C220.296 209.83 218.966 210.664 217.595 211.436C214.854 213.018 211.933 214.265 208.895 215.152C207.347 215.579 205.76 215.848 204.158 215.955C202.524 216.04 200.887 215.877 199.302 215.472C199.183 215.44 199.074 215.38 198.984 215.295C198.895 215.211 198.827 215.105 198.788 214.988C198.75 214.871 198.74 214.747 198.762 214.625C198.783 214.504 198.834 214.39 198.91 214.293L198.922 214.279L202.719 209.523L204.584 207.182C204.665 207.068 204.718 206.936 204.74 206.798C204.763 206.66 204.754 206.518 204.713 206.384C204.678 206.258 204.613 206.141 204.525 206.044C204.471 205.988 204.413 205.938 204.35 205.892C204.299 205.854 204.243 205.822 204.184 205.797C204.037 205.737 203.879 205.71 203.721 205.718C203.524 205.71 203.243 205.713 203.013 205.718C202.53 205.729 202.049 205.764 201.57 205.82C200.608 205.928 199.661 206.137 198.743 206.443C198.284 206.603 197.833 206.742 197.367 206.918C196.922 207.094 196.485 207.294 196.056 207.515L193.378 208.958C193.268 209.017 193.145 209.049 193.02 209.05L192.998 209.05H192.988L193.363 208.96C188.321 211.479 183.233 213.702 178.435 216.476L176.629 217.528C174.733 218.635 172.664 219.416 170.508 219.836C169.079 220.124 167.624 220.265 166.166 220.258C164.687 220.247 163.307 220.072 161.918 219.97L145.218 218.572L128.523 217.107C117.393 216.144 106.262 215.163 95.1262 214.311L90.9513 214.037C90.2525 213.989 89.565 213.966 88.8792 213.947C88.4653 213.954 88.0559 213.859 87.6879 213.669C87.3387 213.469 87.0379 213.194 86.8068 212.864C86.0407 211.625 85.5411 210.239 85.3398 208.796C85.0928 207.408 84.9246 206.006 84.8362 204.598C84.552 199 84.6507 193.388 85.1317 187.803L85.3507 188.124C81.5062 186.942 77.665 185.728 73.9306 184.219C70.1807 182.749 66.508 181.09 62.927 179.247C59.3477 177.402 55.8601 175.382 52.3998 173.355C48.9381 171.348 45.4453 169.338 41.6523 168.304L42.31 167.805C42.3176 178.869 42.5515 189.932 43.0117 200.995C43.252 206.521 43.5586 212.043 44.0113 217.548C44.1092 218.927 44.2469 220.3 44.3758 221.673C44.4966 223.049 44.6398 224.42 44.8055 225.788C44.9636 227.16 45.0863 228.539 45.3395 229.833C45.5851 231.142 45.9488 232.427 46.4263 233.671C48.4053 238.671 51.9938 242.869 56.625 245.603C58.9209 246.986 61.4017 248.035 63.993 248.719C65.2887 249.064 66.6058 249.323 67.9355 249.496C69.2743 249.661 70.6707 249.77 72.0353 249.911L76.1518 250.305L80.2783 250.572C83.0274 250.787 85.7839 250.846 88.5381 250.958C91.2922 251.084 94.0502 251.033 96.8062 251.08C99.5615 251.012 102.32 251.021 105.073 250.874C116.096 250.424 127.074 249.187 137.921 247.172C143.335 246.168 148.781 245.021 154.26 244.11C159.738 243.182 165.228 242.404 170.721 241.66C181.704 240.155 192.709 238.879 203.695 237.507C209.183 236.804 214.683 236.116 220.109 235.142L222.127 234.734C222.802 234.601 223.428 234.382 224.084 234.211C224.71 233.965 225.33 233.693 225.945 233.412C226.547 233.107 227.128 232.761 227.683 232.377C228.794 231.635 229.708 230.633 230.343 229.458C230.647 228.893 230.783 228.252 230.736 227.612C230.708 227.311 230.603 227.022 230.429 226.773C230.256 226.525 230.022 226.326 229.748 226.197C229.711 226.18 229.679 226.154 229.654 226.121C229.629 226.089 229.613 226.05 229.606 226.01C229.599 225.97 229.603 225.928 229.616 225.89C229.629 225.851 229.651 225.816 229.681 225.788L229.697 225.773C230.296 225.278 230.867 224.751 231.409 224.194C231.935 223.628 232.372 222.985 232.705 222.287C232.877 221.954 232.981 221.59 233.012 221.216C233.042 220.842 232.999 220.466 232.883 220.11C232.579 219.406 232.047 218.825 231.373 218.461C231.358 218.452 231.345 218.44 231.335 218.426C231.325 218.413 231.318 218.397 231.314 218.381C231.31 218.364 231.309 218.347 231.311 218.33C231.314 218.313 231.32 218.297 231.328 218.282L231.339 218.267L232.736 216.463L232.741 216.456C232.757 216.435 232.78 216.422 232.806 216.418C232.832 216.415 232.859 216.422 232.88 216.438C232.901 216.453 232.915 216.477 232.918 216.503C232.922 216.529 232.916 216.555 232.9 216.576L231.537 218.432L231.503 218.238C232.244 218.619 232.834 219.238 233.179 219.995C233.32 220.391 233.38 220.81 233.358 221.229C233.336 221.648 233.232 222.058 233.051 222.437C232.72 223.181 232.277 223.87 231.738 224.481C231.19 225.075 230.61 225.637 229.999 226.166L229.948 225.742C230.306 225.902 230.617 226.151 230.85 226.466C231.084 226.781 231.231 227.152 231.279 227.541C231.359 228.287 231.223 229.041 230.887 229.712C230.236 231.003 229.278 232.114 228.097 232.947C227.524 233.366 226.923 233.744 226.299 234.081C225.664 234.393 225.02 234.694 224.367 234.969C223.689 235.168 223.008 235.42 222.327 235.572L220.285 236.036C214.825 237.113 209.34 237.895 203.856 238.695L170.954 243.311C165.479 244.112 160.01 244.947 154.576 245.927C151.855 246.385 149.151 246.972 146.443 247.497C143.738 248.056 141.018 248.636 138.287 249.143C127.349 251.2 116.279 252.473 105.161 252.952C94.0411 253.454 82.8996 253.117 71.8306 251.945C70.4418 251.794 69.0768 251.68 67.6685 251.498C66.2526 251.306 64.8509 251.021 63.4723 250.645C60.7046 249.896 58.0574 248.757 55.6103 247.263C50.6355 244.282 46.7959 239.729 44.698 234.322C44.1907 232.976 43.8061 231.587 43.5489 230.172C43.282 228.745 43.1672 227.36 43.0204 225.981C42.8696 224.598 42.743 223.213 42.6406 221.828C42.5286 220.444 42.4079 219.06 42.3273 217.674C41.9436 212.134 41.7075 206.592 41.5379 201.05C41.2039 189.964 41.1133 178.879 41.2659 167.794L41.2661 167.784C41.2669 167.716 41.2811 167.649 41.3078 167.587C41.3345 167.525 41.3731 167.469 41.4216 167.421C41.47 167.374 41.5273 167.337 41.5901 167.312C41.653 167.287 41.7201 167.274 41.7878 167.275C41.8338 167.276 41.8796 167.283 41.9239 167.295C45.896 168.441 49.4059 170.544 52.8463 172.597C56.2906 174.667 59.7121 176.748 63.2663 178.594C66.8168 180.444 70.4593 182.112 74.1796 183.591C77.8856 185.111 81.7027 186.338 85.5251 187.535C85.5925 187.556 85.6507 187.599 85.6905 187.657C85.7303 187.716 85.7492 187.786 85.7443 187.856C85.2661 193.407 85.1939 198.985 85.528 204.547C85.6239 205.927 85.7979 207.301 86.049 208.661C86.2422 209.99 86.7036 211.266 87.4052 212.411C87.5742 212.654 87.795 212.857 88.0516 213.005C88.3069 213.134 88.5912 213.195 88.8769 213.183C89.5874 213.197 90.2959 213.217 90.9912 213.259L95.1804 213.494C106.339 214.159 117.485 214.944 128.632 215.727L145.35 216.927L162.06 218.238C163.456 218.334 164.855 218.499 166.171 218.498C167.508 218.498 168.843 218.362 170.152 218.091C171.459 217.82 172.734 217.415 173.957 216.881C174.567 216.614 175.162 216.315 175.74 215.983L177.562 214.938C182.464 212.147 187.647 209.921 192.613 207.479L192.624 207.473C192.738 207.418 192.862 207.389 192.988 207.389H192.998L192.619 207.481L195.309 206.055C195.784 205.814 196.272 205.594 196.771 205.399C197.255 205.22 197.775 205.059 198.276 204.89C199.288 204.564 200.331 204.342 201.388 204.229C201.917 204.171 202.449 204.136 202.98 204.127C203.257 204.124 203.484 204.12 203.794 204.133C204.145 204.136 204.492 204.209 204.814 204.346C204.988 204.422 205.152 204.518 205.303 204.633C205.445 204.739 205.576 204.858 205.696 204.988C205.948 205.269 206.131 205.606 206.23 205.971C206.328 206.327 206.346 206.7 206.283 207.064C206.22 207.428 206.078 207.773 205.866 208.075L203.925 210.485L200.094 215.22L199.714 214.027C201.143 214.4 202.618 214.564 204.093 214.516C205.596 214.438 207.087 214.208 208.544 213.831C211.492 213.019 214.333 211.857 217.006 210.369C218.356 209.637 219.674 208.84 220.963 208C221.611 207.586 222.232 207.127 222.868 206.692C223.187 206.474 223.502 206.252 223.805 206.022C224.136 205.76 224.493 205.533 224.87 205.342C225.659 204.943 226.547 204.78 227.427 204.874C227.95 204.91 228.44 205.146 228.795 205.532C228.953 205.745 229.063 205.991 229.117 206.251C229.172 206.511 229.169 206.78 229.11 207.039C228.929 207.859 228.605 208.641 228.153 209.349C227.743 210.029 227.296 210.686 226.814 211.318L226.902 211.05L226.902 211.059L226.902 211.073C226.901 211.166 226.869 211.256 226.813 211.329C225.31 213.261 223.684 215.093 221.946 216.815L221.629 216.201C223.114 215.776 224.531 215.144 225.839 214.323C226.522 213.931 227.199 213.527 227.866 213.102C228.535 212.645 229.253 212.265 230.007 211.968C230.769 211.691 231.556 211.489 232.357 211.365C232.771 211.304 233.191 211.306 233.605 211.369C233.835 211.388 234.056 211.47 234.243 211.607C234.429 211.743 234.575 211.928 234.663 212.142C234.782 212.56 234.767 213.006 234.619 213.415C234.503 213.804 234.35 214.181 234.162 214.541C233.79 215.249 233.369 215.929 232.9 216.576C232.885 216.598 232.862 216.612 232.836 216.617C232.81 216.621 232.784 216.615 232.762 216.6C232.74 216.586 232.726 216.563 232.721 216.537C232.716 216.511 232.721 216.485 232.736 216.463V216.463Z" fill="#020288"/>
<path d="M222.002 217.018C220.494 217.902 218.972 218.717 217.406 219.466C215.857 220.241 214.235 220.86 212.564 221.314C214.163 220.689 215.696 219.907 217.14 218.978C218.595 218.079 220.017 217.106 221.381 216.095L221.389 216.09C221.508 216.002 221.656 215.965 221.802 215.987C221.948 216.009 222.08 216.088 222.168 216.206C222.255 216.325 222.293 216.473 222.271 216.619C222.249 216.765 222.171 216.897 222.052 216.985C222.036 216.997 222.02 217.008 222.002 217.018ZM231.769 218.802C229.184 220.56 226.566 222.246 223.883 223.837C222.539 224.627 221.185 225.403 219.786 226.094C219.091 226.45 218.379 226.77 217.652 227.054C217.292 227.205 216.921 227.329 216.542 227.425C216.167 227.534 215.78 227.594 215.391 227.603C215.777 227.571 216.157 227.489 216.522 227.358C216.891 227.241 217.251 227.097 217.598 226.925C218.301 226.602 218.988 226.242 219.655 225.849C221 225.081 222.299 224.231 223.586 223.367C226.153 221.63 228.662 219.793 231.111 217.905L231.116 217.901C231.233 217.811 231.381 217.771 231.527 217.79C231.673 217.809 231.806 217.885 231.896 218.002C231.986 218.119 232.026 218.267 232.008 218.413C231.989 218.559 231.912 218.692 231.795 218.782L231.769 218.802ZM230.206 226.4C229.198 227.137 228.139 227.803 227.037 228.393C225.954 228.986 224.836 229.515 223.691 229.977C221.417 230.912 219.038 231.566 216.607 231.926C218.983 231.389 221.285 230.564 223.461 229.471C224.546 228.934 225.597 228.335 226.612 227.676C227.62 227.033 228.582 226.322 229.492 225.547L229.51 225.532C229.565 225.483 229.629 225.446 229.699 225.423C229.768 225.4 229.842 225.39 229.915 225.395C229.988 225.4 230.06 225.42 230.125 225.453C230.191 225.485 230.249 225.531 230.297 225.586C230.345 225.642 230.382 225.706 230.405 225.776C230.428 225.845 230.437 225.919 230.432 225.992C230.426 226.065 230.407 226.136 230.374 226.202C230.341 226.267 230.295 226.325 230.239 226.373C230.229 226.382 230.217 226.392 230.206 226.4ZM203.158 184.599C203.075 184.599 202.994 184.579 202.921 184.54C202.848 184.501 202.786 184.444 202.741 184.376L198.423 177.854C198.387 177.799 198.362 177.738 198.349 177.673C198.337 177.609 198.337 177.543 198.35 177.478C198.363 177.414 198.389 177.353 198.425 177.298C198.462 177.244 198.509 177.197 198.564 177.161C198.619 177.124 198.68 177.099 198.744 177.087C198.809 177.074 198.875 177.074 198.94 177.087C199.004 177.1 199.065 177.126 199.12 177.163C199.174 177.199 199.221 177.247 199.257 177.301L203.574 183.823C203.648 183.933 203.674 184.069 203.647 184.199C203.621 184.328 203.544 184.443 203.434 184.516C203.352 184.571 203.256 184.6 203.158 184.599ZM225.387 168.299C225.304 168.299 225.223 168.279 225.15 168.24C225.078 168.201 225.016 168.144 224.97 168.076L220.652 161.554C220.615 161.499 220.59 161.438 220.578 161.374C220.565 161.309 220.565 161.243 220.578 161.178C220.591 161.114 220.617 161.053 220.654 160.998C220.69 160.944 220.738 160.897 220.792 160.861C220.847 160.825 220.908 160.799 220.973 160.787C221.037 160.774 221.104 160.775 221.168 160.788C221.232 160.801 221.294 160.826 221.348 160.863C221.403 160.9 221.449 160.947 221.486 161.001L225.804 167.523C225.854 167.598 225.883 167.686 225.887 167.776C225.891 167.867 225.871 167.956 225.828 168.036C225.785 168.116 225.722 168.182 225.644 168.229C225.566 168.275 225.477 168.299 225.387 168.299Z" fill="#020288"/>
</svg>
