<svg width="48" height="46" viewBox="0 0 48 46" fill="none" xmlns="http://www.w3.org/2000/svg">
<circle cx="16" cy="14" r="12" fill="#E0E0F0"/>
<path d="M25.4991 42C25.6288 42 25.7567 41.9757 25.8786 41.9251H25.1195C25.2414 41.9757 25.3693 42 25.4991 42ZM38.6001 5.72655L38.6008 5.72681C43.1322 7.50695 47.332 12.8733 45.6011 20.5653C44.1338 27.0822 39.3599 32.1106 34.738 35.5865C30.1498 39.037 25.8469 40.8554 25.4991 40.9999C25.1511 40.8554 20.8475 39.0369 16.2593 35.5865C11.6372 32.1106 6.86395 27.0823 5.39908 20.5656L5.39902 20.5654C3.66808 12.8743 7.86688 7.50783 12.3985 5.72675L12.3985 5.72674C16.8747 3.96728 21.5586 5.45898 24.696 9.70154L25.5002 10.789L26.3042 9.70143C29.4408 5.4586 34.1246 3.96471 38.6001 5.72655ZM25.5027 41.0014L25.5026 41.0014L25.5027 41.0014Z" stroke="#020288" stroke-width="2"/>
<path d="M0 24H10L14 15.5L21 31.5L24.5 24H35.5" stroke="#020288" stroke-width="2"/>
</svg>
