<svg width="80" height="80" viewBox="0 0 80 80" fill="none" xmlns="http://www.w3.org/2000/svg">
<path d="M6.35898 20.5774L40 1.1547L73.641 20.5774V59.4226L40 78.8453L6.35898 59.4226V20.5774Z" fill="#E8F4F1" stroke="#04A780" stroke-width="2"/>
<path d="M60.5 39.275L50.9 57.175C50.9 57.275 47.1 64.675 39.7 64.675C39 64.675 36.7 64.575 36.1 64.475C27.5 62.875 25.3 55.075 25.3 54.975L19 35.375C18.9 35.075 18.4 33.975 18.7 32.875C18.9 32.275 19.4 31.775 20.2 31.375C21 30.975 21.8 30.875 22.4 31.275C23.4 31.675 23.7 32.675 23.7 32.675C25.2 36.675 26.9 40.175 27.6 40.275C27.7 40.275 27.8 40.075 27.9 39.975C28.2 39.375 27.9 38.275 27.8 37.975L24.8 25.575C24.8 25.375 23.6 21.575 26 20.575C26.7 20.375 27.4 20.375 28 20.575C29 21.175 29.4 22.275 29.4 22.275L33.3 35.375C33.5 35.975 33.8 37.375 34.4 37.275C34.5 37.275 34.6 37.175 34.7 37.075C34.9 36.775 34.9 35.675 34.9 35.675L33.7 20.275C33.5 18.975 33.6 16.475 36.1 15.975C37.1 15.775 37.9 15.875 38.5 16.275C39.5 16.975 39.7 18.175 39.7 18.275C39.7 18.275 40.9 31.975 41.2 34.575C41.3 36.075 41.5 36.575 41.7 36.575C42.5 36.575 42.7 35.075 42.7 35.075L44.3 22.675C44.3 22.375 44.4 20.675 45.4 19.775C46 19.375 46.6 19.175 47.3 19.275C48.2 19.375 48.9 19.675 49.3 20.275C49.9 21.075 49.8 22.175 49.7 22.275L48 39.675C48 40.375 48.2 42.475 49.2 42.675C50.5 42.875 51.2 41.775 51.2 41.775L55.3 35.775C56 34.975 57.8 33.675 59.5 34.975C61.3 36.075 60.9 38.275 60.5 39.275Z" stroke="#04A780" stroke-width="2"/>
</svg>
