<svg width="48" height="48" viewBox="0 0 48 48" fill="none" xmlns="http://www.w3.org/2000/svg">
<circle cx="16" cy="16" r="12" fill="#E0E0F0"/>
<path fill-rule="evenodd" clip-rule="evenodd" d="M15 20V2H13V20H15ZM25 12V2H23V12H25ZM35 2V20H33V2H35ZM25.5515 18.2361L28.2045 26.4012H36.7898H40.1924L37.4397 28.4012L30.494 33.4476L33.147 41.6127L34.1985 44.8488L31.4457 42.8488L24.5 37.8024L17.5543 42.8488L14.8015 44.8488L15.853 41.6127L18.506 33.4476L11.5603 28.4012L8.80757 26.4012H12.2102H20.7955L23.4485 18.2361L24.5 15L25.5515 18.2361ZM28.2045 28.4012H34.0371L29.3184 31.8295L28.1428 32.6836L28.5919 34.0656L30.3942 39.6127L25.6756 36.1844L24.5 35.3303L23.3244 36.1844L18.6058 39.6127L20.4081 34.0656L20.8572 32.6836L19.6816 31.8295L14.9629 28.4012H20.7955H22.2486L22.6976 27.0193L24.5 21.4721L26.3024 27.0193L26.7514 28.4012H28.2045Z" fill="#020288"/>
</svg>
