<svg width="24" height="24" viewBox="0 0 24 24" fill="none" xmlns="http://www.w3.org/2000/svg">
<path d="M0.264348 22.1589L6.57299 14.7654L9.24444 17.4325L1.85217 23.7486C1.64467 23.9169 1.38418 24.0059 1.11721 23.9997V23.9997C0.903479 23.998 0.694655 23.9354 0.515125 23.8193C0.335595 23.7032 0.192772 23.5383 0.103339 23.344C0.0139062 23.1496 -0.0184446 22.9338 0.0100659 22.7217C0.0385764 22.5096 0.126771 22.3101 0.264348 22.1463V22.1589ZM14.5296 19.1452C14.6975 19.3135 14.9117 19.4276 15.1448 19.4731C15.3779 19.5186 15.6193 19.4933 15.8379 19.4004C16.0566 19.3076 16.2425 19.1514 16.3719 18.952C16.5012 18.7526 16.5681 18.5191 16.564 18.2813V14.2104L23.2489 10.1395C23.4306 10.0342 23.5884 9.89193 23.7119 9.72192C23.8355 9.55191 23.9221 9.3579 23.9663 9.15235C24.0105 8.9468 24.0112 8.73427 23.9684 8.52842C23.9257 8.32257 23.8403 8.12797 23.7179 7.95712L16.0522 0.282397C15.8816 0.159852 15.6872 0.0744192 15.4816 0.0315914C15.276 -0.0112365 15.0637 -0.010511 14.8584 0.0337212C14.6531 0.0779533 14.4593 0.164713 14.2895 0.288421C14.1197 0.412129 13.9776 0.570048 13.8724 0.752022L9.80632 7.4448H5.73267C5.49484 7.44264 5.26181 7.51178 5.06356 7.64333C4.86532 7.77489 4.71094 7.96283 4.62028 8.18298C4.52963 8.40312 4.50686 8.64539 4.5549 8.8786C4.60294 9.11181 4.71959 9.32529 4.88985 9.49156L14.5296 19.1452Z" fill="#FFBDBC"/>
</svg>
