<svg width="379" height="316" viewBox="0 0 379 316" fill="none" xmlns="http://www.w3.org/2000/svg">
<path d="M117.051 250.014C117.01 250.014 116.969 250.006 116.931 249.991C116.892 249.975 116.858 249.952 116.829 249.923C116.8 249.894 116.776 249.859 116.761 249.821C116.745 249.783 116.737 249.742 116.737 249.701V219.984C116.738 219.902 116.772 219.823 116.83 219.765C116.889 219.707 116.968 219.675 117.051 219.675C117.133 219.675 117.212 219.707 117.271 219.765C117.33 219.823 117.363 219.902 117.365 219.984V249.701C117.365 249.742 117.357 249.783 117.341 249.821C117.325 249.859 117.302 249.894 117.273 249.923C117.244 249.952 117.209 249.975 117.171 249.991C117.133 250.006 117.092 250.014 117.051 250.014Z" fill="white"/>
<path d="M148.342 196.419C147.666 197.567 146.87 198.641 145.968 199.621C145.102 200.632 144.153 201.561 143.22 202.507C141.296 204.338 139.32 206.119 137.243 207.775C133.098 211.109 128.706 214.124 124.104 216.793C119.507 219.498 114.649 221.732 109.603 223.461C107.07 224.322 104.478 224.997 101.847 225.48C100.515 225.64 99.1869 225.901 97.849 225.975C96.5099 226.014 95.169 226.075 93.8297 226.092C88.4894 225.912 83.1837 225.16 78.0035 223.85C72.8325 222.599 67.7423 221.035 62.7608 219.167C57.775 217.334 52.8792 215.274 48.0079 213.193C46.7896 212.679 45.5682 212.155 44.3412 211.707C43.7406 211.496 43.0934 211.277 42.4505 211.011C42.1529 210.837 41.8409 210.685 41.5572 210.491C41.2781 210.29 41.0114 210.072 40.7586 209.839C39.7914 208.87 39.0651 207.689 38.6383 206.388C38.2043 205.107 37.9643 203.769 37.9264 202.417L37.9298 202.456C34.7379 184.959 30.6398 167.64 25.6519 150.568C23.2245 142.016 20.513 133.549 17.7271 125.111C14.9361 116.674 11.9609 108.302 8.80136 99.9948C7.20712 95.8485 5.60996 91.7034 3.93564 87.5902C3.12534 85.5271 2.17514 83.5221 1.47397 81.3385C0.779027 79.1743 0.324944 76.94 0.119962 74.6762C0.0051833 73.5291 -0.0272877 72.3753 0.0227938 71.2237C0.149947 69.9769 0.664671 68.8014 1.49458 67.8623C2.32449 66.9233 3.42784 66.268 4.6495 65.9885C5.75872 65.7106 6.88891 65.5243 8.02865 65.4315C10.3319 65.2773 12.6424 65.5939 14.8192 66.362L21.1578 68.442L46.513 76.7623C47.5982 77.0735 48.6571 77.47 49.6798 77.9483C50.7028 78.4637 51.6406 79.133 52.4605 79.933C54.1178 81.531 55.1995 83.6327 55.5367 85.9101L57.4181 99.1223C57.4202 99.1386 57.4159 99.1551 57.4061 99.1682C57.3963 99.1814 57.3817 99.1902 57.3654 99.1927C57.3492 99.1952 57.3327 99.1912 57.3193 99.1817C57.306 99.1721 57.2969 99.1577 57.2941 99.1415L55.0792 85.9854C54.6984 83.8346 53.6333 81.8643 52.0426 80.3675C51.2579 79.6221 50.3634 79.0017 49.3903 78.528C48.3913 78.0788 47.3585 77.7091 46.3014 77.4224L20.8358 69.4467L14.4693 67.453C12.4295 66.7597 10.2694 66.4913 8.12191 66.6643C7.04581 66.7697 5.97897 66.9544 4.93004 67.2168C3.9679 67.4393 3.09961 67.9576 2.44709 68.6989C1.79458 69.4401 1.39058 70.3671 1.29184 71.3497C1.2545 72.4204 1.28982 73.4924 1.39755 74.5583C1.59896 76.7278 2.03913 78.8684 2.71005 80.9413C3.37119 82.9953 4.33089 85.0213 5.15194 87.0939C6.83773 91.2165 8.46169 95.3629 10.0238 99.5329C16.2709 116.212 21.7435 133.149 26.4418 150.346C28.7887 158.931 30.9782 167.56 32.9193 176.245C34.9686 184.906 36.6513 193.645 38.3615 202.377L38.3641 202.4L38.3649 202.417C38.3565 205.031 39.3317 207.552 41.0968 209.48C41.3321 209.694 41.58 209.894 41.839 210.078C42.101 210.257 42.3934 210.388 42.6681 210.546C43.2523 210.774 43.8646 210.974 44.518 211.189C45.787 211.628 47.0114 212.13 48.2428 212.624C53.1539 214.622 58.0665 216.59 63.0599 218.334C68.0421 220.087 73.1119 221.581 78.2489 222.809C83.3641 224.053 88.5905 224.785 93.8508 224.992C95.1596 224.983 96.4679 224.931 97.7773 224.903C99.0832 224.84 100.369 224.592 101.667 224.447C104.251 223.99 106.799 223.344 109.29 222.514C114.282 220.822 119.105 218.666 123.696 216.074C128.305 213.49 132.717 210.57 136.899 207.339C139.01 205.748 141.021 204.03 142.986 202.261C143.938 201.345 144.909 200.446 145.795 199.466C146.714 198.52 147.53 197.479 148.23 196.361L148.234 196.355C148.242 196.34 148.256 196.33 148.272 196.326C148.288 196.322 148.305 196.324 148.32 196.333C148.334 196.341 148.344 196.355 148.348 196.371C148.353 196.387 148.35 196.404 148.342 196.419L148.342 196.419Z" fill="white"/>
<path d="M5.17082 71.7263L14.7883 75.1018L24.3818 78.5408L33.9638 82.0115L43.5287 85.5272C43.6099 85.557 43.6824 85.6063 43.7399 85.6709C43.7974 85.7355 43.8381 85.8132 43.8583 85.8973L43.8602 85.9065C45.7731 94.0891 47.6112 102.289 49.3747 110.505C51.1542 118.718 52.8605 126.948 54.7097 135.145C58.3508 151.552 62.3281 167.883 66.1708 184.245C67.0879 188.283 68.7626 192.11 71.1061 195.524C73.4454 198.921 76.5056 201.76 80.0683 203.838C83.6419 205.87 87.6713 206.967 91.7822 207.026C93.8576 207.012 95.931 206.891 97.9938 206.662C100.071 206.439 102.147 206.206 104.204 205.864C108.323 205.235 112.375 204.225 116.307 202.845C120.23 201.408 124.04 199.681 127.705 197.677C131.402 195.71 135.012 193.565 138.588 191.366C142.182 189.194 145.742 186.962 149.306 184.735C149.32 184.727 149.337 184.724 149.353 184.727C149.369 184.731 149.383 184.74 149.392 184.754C149.401 184.768 149.405 184.785 149.401 184.801C149.398 184.817 149.389 184.831 149.375 184.841C142.407 189.538 135.473 194.3 128.129 198.45C124.462 200.556 120.634 202.37 116.682 203.874C112.705 205.348 108.594 206.431 104.407 207.11C102.319 207.463 100.22 207.705 98.1205 207.938C96.0079 208.179 93.8843 208.309 91.7582 208.328C87.4231 208.293 83.1709 207.137 79.4149 204.973C75.7484 202.728 72.5867 199.749 70.1293 196.221C67.6719 192.694 65.9722 188.696 65.1373 184.479C61.5433 168.061 58.0838 151.613 54.2882 135.241C52.4191 127.048 50.4071 118.888 48.4681 110.711C46.5218 102.536 44.6415 94.3458 42.8273 86.1409L43.1588 86.5198L33.6263 82.9164L24.1107 79.2679L14.607 75.5878L5.12682 71.844C5.1115 71.8379 5.09917 71.8261 5.09247 71.8111C5.08577 71.7961 5.08524 71.779 5.091 71.7636C5.09676 71.7482 5.10835 71.7356 5.12326 71.7286C5.13818 71.7217 5.15524 71.7208 5.17076 71.7263L5.17082 71.7263ZM116.255 23.2716C113.621 21.6719 112.957 16.8522 114.988 13.6263C117.549 9.55817 120.412 16.941 120.412 16.941C125.083 23.8719 134.575 5.33939 134.575 5.33939C134.575 5.33939 127.041 -4.15286 109.865 2.17531C92.6884 8.50348 104.441 30.0494 104.441 30.0494C104.441 30.0494 86.5109 38.4869 92.5377 60.9368C92.5377 60.9368 108.56 57.2085 107.605 30.4684C107.605 30.4684 114.31 27.827 116.255 23.2716" fill="white"/>
<path d="M118.133 23.7497C117.175 23.9863 116.163 23.8413 115.31 23.3452C115.274 23.3236 115.243 23.2952 115.219 23.2617C115.194 23.2281 115.176 23.1901 115.167 23.1497C115.157 23.1093 115.155 23.0674 115.161 23.0263C115.168 22.9852 115.182 22.9458 115.204 22.9103C115.225 22.8748 115.254 22.8439 115.287 22.8193C115.321 22.7948 115.359 22.7771 115.399 22.7672C115.44 22.7574 115.481 22.7556 115.523 22.7619C115.564 22.7683 115.603 22.7827 115.639 22.8043C115.661 22.8188 115.682 22.8357 115.702 22.8547C116.367 23.4538 117.238 23.7742 118.133 23.7497ZM134.086 6.30891C135.109 7.94628 135.91 9.71273 136.466 11.5616C137.062 13.435 137.287 15.4067 137.128 17.3662L137.008 17.0102C137.581 17.6123 138.14 18.2281 138.691 18.8505L140.345 20.7523C140.49 20.9444 140.594 21.1641 140.651 21.3978C140.708 21.6315 140.717 21.8744 140.677 22.1117C140.637 22.3489 140.548 22.5755 140.418 22.7775C140.287 22.9795 140.117 23.1528 139.917 23.2866C139.577 23.5467 139.214 23.7747 138.832 23.9676C138.635 24.0908 138.413 24.1683 138.183 24.1945C137.952 24.2207 137.718 24.195 137.499 24.1191L137.717 23.9874C137.692 26.6986 137.408 29.4012 136.867 32.0581C136.584 33.4446 135.996 34.7507 135.145 35.8816C134.647 36.5001 133.944 36.9203 133.163 37.0664C132.771 37.1118 132.373 37.0957 131.986 37.0189L131.019 36.8525C129.76 36.6267 128.471 36.6271 127.212 36.8537C125.974 37.1106 124.829 37.6972 123.898 38.5515C122.082 40.4777 120.681 42.7559 119.781 45.2452C119.777 45.2576 119.767 45.2676 119.755 45.2729C119.743 45.2783 119.729 45.2787 119.716 45.2739C119.705 45.2691 119.696 45.2605 119.69 45.2495C119.685 45.2385 119.683 45.2259 119.686 45.214C120.011 43.8969 120.458 42.6131 121.023 41.3795C121.576 40.1062 122.349 38.9401 123.306 37.9345C124.306 36.8978 125.584 36.1721 126.986 35.8449C128.37 35.5521 129.799 35.5383 131.188 35.8043L132.201 36.0103C132.472 36.0724 132.75 36.0942 133.026 36.075C133.58 35.9795 134.081 35.6902 134.441 35.2587C135.232 34.2514 135.81 33.0934 136.138 31.8556C136.91 29.2993 137.34 26.652 137.417 23.9828C137.418 23.9424 137.436 23.9042 137.465 23.8766C137.495 23.8491 137.534 23.8345 137.575 23.8359C137.596 23.837 137.616 23.8421 137.635 23.8509C137.813 23.8991 137.999 23.9086 138.18 23.8788C138.362 23.849 138.535 23.7807 138.688 23.6783C139.042 23.4843 139.375 23.2527 139.68 22.9877C139.823 22.8832 139.942 22.7503 140.031 22.5974C140.119 22.4445 140.175 22.2749 140.194 22.0994C140.214 21.9238 140.197 21.7461 140.144 21.5775C140.092 21.4089 140.005 21.253 139.889 21.1197L138.115 19.3989C137.521 18.8168 136.934 18.228 136.361 17.6256C136.318 17.5807 136.285 17.5273 136.264 17.469C136.243 17.4106 136.235 17.3485 136.239 17.2866L136.24 17.2694C136.32 16.3506 136.318 15.4265 136.233 14.5082C136.137 13.5786 135.984 12.6559 135.774 11.7451C135.336 9.90221 134.742 8.0998 133.999 6.35715C133.996 6.3512 133.994 6.34476 133.994 6.33817C133.994 6.33159 133.995 6.32501 133.997 6.3188C133.999 6.31258 134.002 6.30687 134.007 6.30197C134.011 6.29708 134.017 6.2931 134.022 6.29026C134.034 6.28556 134.046 6.28485 134.058 6.28825C134.069 6.29165 134.079 6.29894 134.086 6.30891Z" fill="white"/>
<path d="M131.373 13.7012C131.94 13.1296 132.699 12.7886 133.502 12.7441C134.296 12.6673 135.093 12.8442 135.78 13.2492C134.987 13.3099 134.275 13.3046 133.557 13.3692C132.822 13.4338 132.093 13.5447 131.373 13.7012ZM133.294 17.581C133.538 17.5725 133.77 17.4696 133.939 17.2939C134.109 17.1183 134.204 16.8835 134.204 16.6393C134.204 16.395 134.109 16.1603 133.939 15.9846C133.77 15.809 133.538 15.7061 133.294 15.6976C133.05 15.7061 132.819 15.809 132.649 15.9846C132.479 16.1603 132.385 16.395 132.385 16.6393C132.385 16.8835 132.479 17.1183 132.649 17.2939C132.819 17.4696 133.05 17.5725 133.294 17.581ZM121.09 28.3917C121.968 29.4589 122.767 30.5383 123.621 31.5737C124.46 32.6269 125.39 33.604 126.401 34.4937C125.111 33.9537 123.985 33.084 123.136 31.9717C122.253 30.9055 121.56 29.6943 121.09 28.3917ZM56.6281 95.0463C57.2516 92.1499 58.0092 89.3376 58.8271 86.5135C59.6549 83.6997 60.5197 80.8922 61.5206 78.1308C63.4664 72.5746 65.7922 67.1588 68.4816 61.922C69.8527 59.3027 71.368 56.7615 73.0206 54.3101C74.6613 51.8267 76.5186 49.4934 78.5709 47.3377C80.6245 45.1279 82.9944 43.2349 85.6034 41.7205C88.2651 40.184 91.2459 39.2837 94.3131 39.0898L94.3214 39.0894C94.3735 39.087 94.4258 39.0894 94.4774 39.0966C97.4447 39.5293 100.384 40.04 103.32 40.6189C106.254 41.1912 109.181 41.8105 112.09 42.5294C115.039 43.1849 117.919 44.1161 120.693 45.3106C122.067 45.9924 123.313 46.7135 124.667 47.3589L128.703 49.2895C130.064 49.9338 131.383 50.6664 132.649 51.4828C133.95 52.2993 135.076 53.3668 135.96 54.623C137.696 56.9972 139.736 59.2036 141.688 61.4431C145.636 65.9036 149.66 70.2975 153.761 74.6246C153.83 74.6977 153.874 74.791 153.886 74.8908C153.899 74.9907 153.878 75.0917 153.829 75.1793L153.825 75.1861C152.304 77.865 150.663 80.4456 148.939 82.9868C147.212 85.5228 145.379 87.9919 143.412 90.3636C141.441 92.7522 139.278 94.9764 136.945 97.0141C134.585 99.1533 131.811 100.787 128.796 101.815L129.198 101.576C127.019 103.792 124.789 105.919 122.439 107.96C121.261 108.975 120.056 109.966 118.767 110.889C118.114 111.364 117.432 111.8 116.726 112.193C115.911 112.702 114.977 112.989 114.017 113.023L115.072 111.796C115.572 113.988 116.091 116.184 116.635 118.364L117.476 121.62C117.617 122.16 117.767 122.696 117.924 123.22C118.06 123.706 118.224 124.184 118.416 124.651L118.438 124.702C118.495 124.827 118.525 124.962 118.529 125.1C118.533 125.237 118.509 125.374 118.46 125.502C118.411 125.631 118.337 125.748 118.243 125.848C118.148 125.948 118.035 126.028 117.909 126.084C117.805 126.13 117.694 126.159 117.581 126.17C110.581 126.827 103.593 127.276 96.5752 127.521C89.5453 127.807 82.5043 127.646 75.4949 127.037C73.7381 126.854 71.9815 126.632 70.2324 126.296C68.4548 125.992 66.7152 125.497 65.0434 124.821C64.1667 124.463 63.3478 123.976 62.6138 123.378C62.2253 123.045 61.8936 122.651 61.6318 122.211C61.3811 121.769 61.2429 121.382 61.0437 120.965C60.338 119.33 59.7608 117.643 59.3176 115.918C58.4456 112.508 57.8135 109.04 57.4258 105.541C57.0172 102.05 56.7472 98.5761 56.6281 95.0463ZM56.8271 95.0651C57.3464 102.014 58.5332 108.898 60.3712 115.62C60.8518 117.269 61.4604 118.879 62.1913 120.434C62.3795 120.8 62.5614 121.233 62.7538 121.542C62.9521 121.848 63.1983 122.119 63.4828 122.347C64.1257 122.83 64.8356 123.217 65.5902 123.496C68.8447 124.564 72.2263 125.197 75.6469 125.378C82.591 125.814 89.5542 125.856 96.5031 125.504C103.465 125.232 110.442 124.754 117.367 124.074L116.532 125.593C116.281 125.021 116.07 124.432 115.9 123.831C115.731 123.274 115.575 122.723 115.428 122.171C115.123 121.07 114.862 119.965 114.596 118.862C114.071 116.654 113.575 114.449 113.096 112.231C113.067 112.101 113.065 111.967 113.089 111.836C113.113 111.704 113.162 111.579 113.234 111.467C113.306 111.355 113.4 111.259 113.509 111.183C113.619 111.107 113.742 111.053 113.872 111.025C113.964 111.006 114.058 110.999 114.151 111.004C114.728 110.933 115.283 110.738 115.779 110.434C116.419 110.085 117.037 109.699 117.63 109.277C118.849 108.424 120.032 107.476 121.19 106.498C123.503 104.537 125.745 102.443 127.898 100.303L127.905 100.296C128.015 100.187 128.151 100.107 128.3 100.064C131.089 99.1403 133.666 97.6714 135.881 95.7426C138.183 93.8032 140.327 91.6838 142.292 89.4044C144.29 87.1346 146.171 84.7512 147.953 82.2929C149.733 79.8369 151.434 77.3034 152.992 74.7117L153.056 75.2729C149.096 70.8106 145.122 66.3668 141.193 61.8773C139.243 59.6128 137.281 57.3878 135.442 54.9898C133.771 52.5941 131.02 51.2458 128.378 49.9622C125.702 48.7101 122.928 47.4804 120.283 46.1699C117.541 45.0962 114.705 44.2802 111.812 43.7324C106.014 42.479 100.111 41.6357 94.2428 40.7696L94.4066 40.7765C91.6058 40.9836 88.8909 41.8359 86.4742 43.2667C84.0269 44.7177 81.7856 46.4909 79.8104 48.5387C77.7984 50.6023 75.9733 52.8403 74.3568 55.2263C72.7071 57.6112 71.1911 60.0858 69.8158 62.6387C67.0293 67.7573 64.5791 73.0519 62.4806 78.4889C60.3468 83.9156 58.443 89.4723 56.827 95.0651L56.8271 95.0651Z" fill="white"/>
<path d="M128.548 100.94C127.834 99.3148 127.164 97.6765 126.485 96.0423C125.804 94.4093 125.163 92.7613 124.457 91.1414C123.801 89.5006 123.098 87.8804 122.367 86.2764C122.013 85.4683 121.627 84.6766 121.21 83.9015C121.016 83.5073 120.797 83.1256 120.556 82.7585C120.441 82.5714 120.316 82.3904 120.182 82.2164L119.734 81.7295C121.03 82.9593 122.073 84.4323 122.801 86.0643C123.629 87.64 124.332 89.2719 125.036 90.9004C125.697 92.5475 126.349 94.1969 126.935 95.8707C127.52 97.5442 128.078 99.2278 128.548 100.94ZM118.604 132.218C118.544 132.218 118.486 132.201 118.436 132.169C118.385 132.137 118.345 132.091 118.32 132.037L115.213 125.443C115.196 125.406 115.185 125.366 115.183 125.324C115.181 125.283 115.187 125.242 115.201 125.203C115.215 125.164 115.236 125.128 115.264 125.097C115.292 125.067 115.326 125.042 115.363 125.024C115.401 125.006 115.441 124.996 115.482 124.995C115.524 124.993 115.565 124.999 115.604 125.013C115.643 125.027 115.679 125.049 115.709 125.077C115.74 125.105 115.764 125.138 115.782 125.176L118.888 131.77C118.911 131.817 118.921 131.87 118.917 131.923C118.914 131.976 118.897 132.027 118.869 132.072C118.841 132.116 118.801 132.153 118.755 132.179C118.709 132.204 118.657 132.218 118.604 132.218ZM62.2217 122.185L66.0136 136.14C64.0297 129.141 62.6234 123.735 62.2217 122.185Z" fill="white"/>
<path d="M196.123 209.879C194.003 213.609 194.983 221.279 194.543 223.889C193.946 227.579 192.542 231.092 190.433 234.179C189.863 229.789 189.193 225.409 188.503 221.028C187.813 216.659 187.033 212.298 186.313 207.929C185.503 203.579 184.743 199.209 183.893 194.869L182.603 188.349C182.133 186.179 181.703 184.008 181.203 181.849C181.483 184.049 181.813 186.238 182.123 188.439L183.133 194.999C183.823 199.379 184.593 203.738 185.323 208.099C186.133 212.459 186.893 216.819 187.743 221.169C188.593 225.509 189.453 229.859 190.433 234.179C185.693 241.129 177.713 245.519 168.813 248.869C162.144 251.364 155.277 253.291 148.283 254.629C143.163 209.649 151.153 178.008 151.153 178.008C151.153 178.008 150.243 176.879 147.083 176.879C143.913 176.879 135.103 182.079 135.103 182.079C101.653 202.419 91.2531 191.119 83.3432 182.529C78.153 176.889 70.6032 152.389 66.0432 136.269C96.7832 147.569 113.853 131.899 117.053 131.899C118.063 131.899 123.013 131.379 129.913 130.719C130.726 131.549 131.358 132.537 131.771 133.623C132.184 134.709 132.369 135.868 132.313 137.029C135.173 141.089 138.643 134.309 137.133 131.899C136.795 131.347 136.532 130.751 136.353 130.129C137.723 130.009 139.143 129.879 140.593 129.759C143.003 133.059 145.793 137.939 148.283 140.339C152.653 144.559 153.413 137.779 153.413 137.779C158.833 141.699 158.833 134.769 158.833 134.769C163.653 137.629 161.993 130.719 161.993 130.719C162.324 130.431 162.568 130.057 162.699 129.639C162.829 129.22 162.841 128.774 162.733 128.349C168.889 128.043 175.058 128.13 181.203 128.609C199.963 130.509 217.823 185.239 217.823 185.239C218.503 194.959 203.803 196.319 196.123 209.879ZM88.8128 225.214C89.5123 229.576 89.9434 233.96 90.3983 238.341C90.8211 242.725 91.0223 247.126 91.2953 251.522L92.1298 264.707L92.9018 277.897C92.9027 277.914 92.8972 277.93 92.8864 277.942C92.8756 277.955 92.8603 277.962 92.8439 277.964C92.8275 277.965 92.8113 277.96 92.7986 277.949C92.786 277.939 92.7781 277.923 92.7765 277.907L91.5041 264.756L90.2939 251.599C89.8857 247.214 89.4054 242.835 89.1466 238.438C88.9201 234.039 88.6696 229.642 88.6876 225.223C88.6876 225.208 88.6936 225.192 88.7044 225.181C88.7151 225.169 88.7299 225.162 88.7457 225.161C88.7616 225.159 88.7773 225.164 88.7897 225.174C88.8022 225.184 88.8105 225.198 88.8129 225.214H88.8128ZM102.545 224.865C102.986 229.278 103.158 233.696 103.355 238.114C103.518 242.532 103.46 246.954 103.474 251.375L103.53 264.638L103.524 277.901C103.524 277.918 103.518 277.934 103.506 277.945C103.495 277.957 103.479 277.964 103.462 277.964C103.446 277.965 103.43 277.958 103.418 277.947C103.406 277.936 103.399 277.92 103.399 277.903L102.903 264.649L102.47 251.394C102.32 246.975 102.098 242.558 102.099 238.137C102.132 233.715 102.141 229.294 102.419 224.867C102.42 224.852 102.427 224.837 102.439 224.826C102.45 224.815 102.465 224.809 102.481 224.809C102.497 224.808 102.512 224.814 102.524 224.825C102.536 224.835 102.543 224.849 102.545 224.865Z" fill="white"/>
<path d="M97.9926 288.481C115.093 288.481 128.956 282.865 128.956 275.938C128.956 269.01 115.093 263.395 97.9926 263.395C80.8923 263.395 67.0297 269.01 67.0297 275.938C67.0297 282.865 80.8923 288.481 97.9926 288.481Z" fill="white"/>
<path d="M114.084 112.014C113.428 112.48 112.666 112.776 111.868 112.876C111.458 112.933 111.04 112.918 110.635 112.83C110.418 112.8 110.215 112.706 110.051 112.561C109.888 112.416 109.77 112.225 109.714 112.014C109.847 112.134 110.004 112.225 110.174 112.282C110.344 112.339 110.524 112.361 110.703 112.345C111.066 112.336 111.429 112.305 111.788 112.253C112.549 112.133 113.315 112.053 114.084 112.014ZM127.869 101.604C131.174 103.746 134.469 105.905 137.803 107.981C138.639 108.494 139.478 109.006 140.328 109.477C140.75 109.725 141.183 109.934 141.604 110.157C141.805 110.24 142.042 110.364 142.212 110.417C142.288 110.434 142.362 110.456 142.435 110.483C142.602 110.515 142.772 110.554 142.938 110.6C143.877 110.996 144.785 111.46 145.656 111.99C146.514 112.491 147.36 113.009 148.192 113.544C151.552 115.652 154.733 118.034 157.702 120.665C159.225 121.981 160.569 123.492 161.699 125.158L162.081 125.838L162.388 126.504C162.617 126.962 162.813 127.435 162.974 127.92C163.135 128.446 163.158 129.004 163.04 129.541C162.907 130.081 162.606 130.566 162.181 130.925L162.264 130.658C162.39 131.297 162.47 131.944 162.501 132.595C162.551 133.261 162.471 133.931 162.267 134.567C162.213 134.737 162.13 134.896 162.02 135.037L161.856 135.256L161.626 135.422C161.476 135.533 161.299 135.603 161.114 135.628C160.94 135.67 160.759 135.676 160.583 135.644C160.246 135.605 159.916 135.518 159.603 135.386L158.732 134.934L159.03 134.765C159.007 135.501 158.893 136.232 158.69 136.94C158.508 137.686 158.077 138.347 157.468 138.816C157.134 139.017 156.757 139.139 156.368 139.173C155.979 139.206 155.587 139.15 155.223 139.008C154.874 138.878 154.533 138.727 154.202 138.558L153.271 137.97L153.643 137.805C153.547 138.989 153.152 140.13 152.496 141.121C152.305 141.388 152.056 141.609 151.768 141.766C151.48 141.924 151.16 142.015 150.832 142.032L150.336 141.994C150.181 141.956 150.036 141.896 149.885 141.845C149.596 141.74 149.321 141.598 149.067 141.423C148.115 140.741 147.262 139.93 146.532 139.015C145.795 138.132 145.106 137.219 144.449 136.289C143.133 134.432 141.898 132.529 140.585 130.711C139.953 129.804 139.263 128.939 138.518 128.122C138.179 127.746 137.788 127.42 137.356 127.156C137.203 127.055 137.026 126.997 136.842 126.987C136.713 126.989 136.59 127.041 136.498 127.132L136.689 126.776C136.559 127.981 136.699 129.199 137.098 130.343C137.2 130.623 137.321 130.896 137.461 131.16C137.53 131.29 137.605 131.419 137.683 131.543C137.775 131.72 137.868 131.925 137.953 132.118C138.175 132.855 138.218 133.635 138.08 134.393C137.846 135.854 137.138 137.198 136.064 138.216C135.746 138.513 135.361 138.728 134.941 138.843C134.521 138.957 134.08 138.968 133.655 138.874C132.881 138.611 132.218 138.093 131.775 137.405C131.691 137.305 131.648 137.177 131.654 137.046L131.657 136.97C131.721 135.473 131.372 133.987 130.647 132.675C130.462 132.354 130.253 132.047 130.022 131.757C129.782 131.453 129.553 131.238 129.237 130.889C128.644 130.249 128.153 129.524 127.78 128.736C127.092 127.192 126.683 125.539 126.573 123.852C126.445 122.209 126.459 120.558 126.615 118.917L126.643 119.099C126.142 118.145 125.397 117.34 124.484 116.767C123.544 116.147 122.513 115.675 121.429 115.369C120.336 115.036 119.215 114.804 118.08 114.676C117.508 114.633 116.936 114.573 116.361 114.542L114.632 114.5C114.616 114.5 114.6 114.494 114.587 114.483C114.575 114.472 114.568 114.456 114.567 114.439C114.568 114.423 114.574 114.408 114.585 114.396C114.596 114.384 114.611 114.376 114.627 114.374L116.366 114.292C116.946 114.287 117.527 114.314 118.11 114.325C119.28 114.388 120.441 114.558 121.579 114.834C122.738 115.107 123.847 115.558 124.866 116.173C125.384 116.487 125.866 116.857 126.302 117.277C126.77 117.708 127.156 118.221 127.439 118.79C127.46 118.833 127.471 118.881 127.469 118.929L127.468 118.972C127.389 120.566 127.427 122.164 127.583 123.752C127.723 125.305 128.137 126.821 128.804 128.231C129.144 128.902 129.583 129.518 130.108 130.056C130.339 130.304 130.708 130.642 130.976 130.969C131.261 131.304 131.516 131.664 131.739 132.043C132.615 133.573 133.043 135.319 132.972 137.081L132.855 136.645C133.209 137.063 133.594 137.515 133.995 137.574C134.211 137.613 134.434 137.598 134.643 137.532C134.853 137.465 135.043 137.348 135.197 137.192C136.028 136.376 136.577 135.317 136.764 134.168C136.863 133.632 136.844 133.081 136.711 132.553L136.572 132.233C136.477 132.079 136.389 131.922 136.307 131.762C136.144 131.443 136.003 131.114 135.885 130.775C135.431 129.427 135.291 127.993 135.474 126.582C135.49 126.452 135.552 126.331 135.649 126.242L135.665 126.227C135.992 125.928 136.419 125.765 136.861 125.77C137.246 125.786 137.62 125.901 137.947 126.105C138.481 126.435 138.962 126.842 139.377 127.313C140.147 128.181 140.859 129.098 141.508 130.059C142.799 131.946 143.981 133.876 145.237 135.746C145.866 136.679 146.497 137.608 147.181 138.489C147.829 139.372 148.595 140.162 149.457 140.838C149.663 140.994 149.888 141.122 150.128 141.218C150.244 141.26 150.359 141.316 150.476 141.351L150.826 141.388C151.063 141.381 151.295 141.32 151.505 141.21C151.715 141.1 151.897 140.944 152.038 140.754C152.659 139.862 153.049 138.831 153.174 137.753C153.184 137.689 153.219 137.632 153.272 137.594C153.324 137.556 153.389 137.541 153.453 137.551C153.486 137.557 153.518 137.569 153.547 137.587L154.425 138.159C154.729 138.318 155.042 138.461 155.361 138.586C155.662 138.711 155.988 138.766 156.313 138.745C156.638 138.725 156.954 138.63 157.237 138.468C157.772 138.057 158.153 137.478 158.317 136.824C158.524 136.157 158.631 135.463 158.636 134.765C158.637 134.732 158.645 134.699 158.662 134.67C158.678 134.641 158.702 134.616 158.73 134.599C158.759 134.581 158.791 134.571 158.825 134.57C158.858 134.568 158.891 134.575 158.921 134.59L158.933 134.596L159.76 135.009C160.034 135.118 160.322 135.189 160.616 135.22C160.885 135.26 161.159 135.2 161.385 135.049C161.611 134.899 161.773 134.67 161.839 134.406C162.01 133.827 162.069 133.221 162.014 132.619C161.976 132.001 161.881 131.387 161.73 130.786C161.719 130.738 161.72 130.688 161.735 130.641C161.749 130.594 161.776 130.552 161.813 130.519C162.131 130.217 162.351 129.826 162.444 129.397C162.536 128.969 162.497 128.522 162.331 128.116C162.161 127.674 161.96 127.245 161.731 126.831L161.392 126.17L161.024 125.577C159.873 124.031 158.526 122.64 157.018 121.44C154.019 118.928 150.879 116.589 147.614 114.434C146.029 113.338 144.363 112.363 142.631 111.518C142.559 111.5 142.488 111.476 142.42 111.445C142.282 111.414 142.089 111.376 141.928 111.329C141.633 111.228 141.434 111.111 141.183 111.002C140.737 110.762 140.297 110.514 139.877 110.249C139.026 109.732 138.203 109.185 137.382 108.636C134.102 106.435 130.923 104.107 127.796 101.706C127.783 101.697 127.775 101.682 127.772 101.666C127.77 101.65 127.774 101.633 127.783 101.62C127.792 101.607 127.807 101.598 127.823 101.595C127.839 101.592 127.855 101.595 127.869 101.604L127.869 101.604Z" fill="white"/>
<path d="M141.958 124.068C144.146 126.101 146.221 128.253 148.173 130.514C150.142 132.77 151.978 135.138 153.671 137.607C153.717 137.676 153.734 137.759 153.718 137.84C153.702 137.921 153.655 137.993 153.588 138.039C153.52 138.086 153.436 138.104 153.355 138.09C153.274 138.075 153.201 138.029 153.154 137.962L153.146 137.951C151.55 135.44 149.809 133.024 147.933 130.716C146.064 128.392 144.069 126.173 141.958 124.068ZM148.286 122.712C152.081 126.482 155.684 130.44 159.081 134.573C159.133 134.638 159.157 134.72 159.148 134.803C159.139 134.885 159.098 134.96 159.034 135.013C158.969 135.065 158.887 135.09 158.805 135.081C158.722 135.073 158.647 135.033 158.594 134.969L158.585 134.958C155.36 130.705 151.922 126.618 148.286 122.712ZM152.806 121.732C154.419 123.145 156.019 124.574 157.606 126.018L159.966 128.21C160.742 128.958 161.516 129.693 162.243 130.527C162.297 130.59 162.325 130.672 162.319 130.755C162.313 130.838 162.275 130.915 162.212 130.97C162.149 131.025 162.067 131.052 161.984 131.047C161.901 131.041 161.824 131.002 161.769 130.94L161.76 130.929L161.751 130.918C161.108 130.102 160.364 129.318 159.633 128.543L157.389 126.244C155.877 124.726 154.35 123.222 152.806 121.732ZM134.173 98.1178C134.983 99.1235 135.882 100.053 136.862 100.894C137.824 101.767 138.8 102.626 139.79 103.471L145.774 108.487C149.773 111.821 153.86 115.057 157.9 118.335L157.956 118.386L157.969 118.399C159.731 120.239 161.731 121.834 163.917 123.142C166.103 124.418 168.477 125.342 170.951 125.879C175.929 126.965 181.119 126.528 185.846 124.625C188.161 123.679 190.499 122.328 192.884 121.248C195.253 120.102 197.68 119.077 200.117 118.086C202.569 117.129 205.052 116.251 207.572 115.486C210.096 114.682 212.691 114.123 215.321 113.815C215.353 113.813 215.385 113.816 215.415 113.826L215.427 113.829C217.728 114.594 220.133 115.001 222.558 115.035C224.964 115.084 227.348 114.56 229.512 113.506C230.583 112.931 231.612 112.281 232.592 111.562C233.79 110.982 235.137 110.785 236.451 110.998C237.701 111.131 238.938 111.376 240.144 111.731C240.406 111.82 240.676 111.887 240.95 111.93C241.186 111.959 241.425 111.944 241.656 111.886C242.096 111.762 242.479 111.49 242.742 111.116L242.993 110.882C242.946 110.905 242.902 110.935 242.864 110.971C242.768 111.058 242.705 111.174 242.683 111.301C242.666 111.396 242.672 111.494 242.7 111.586C242.728 111.678 242.778 111.762 242.844 111.831L242.755 111.095C242.911 110.786 242.973 110.438 242.932 110.094C242.912 109.901 242.875 109.711 242.821 109.525C242.77 109.342 242.702 109.165 242.62 108.994C242.581 108.916 242.557 108.831 242.552 108.744C242.546 108.656 242.558 108.569 242.587 108.487L242.601 108.446C242.772 107.664 242.72 106.85 242.451 106.096C242.203 105.241 241.877 104.41 241.478 103.613C241.433 103.521 241.407 103.422 241.402 103.32C241.396 103.218 241.411 103.116 241.445 103.02L241.462 102.972C241.581 102.659 241.636 102.325 241.622 101.99C241.586 101.631 241.493 101.28 241.346 100.95C241.183 100.593 240.981 100.256 240.742 99.9442C240.506 99.628 240.242 99.3341 239.952 99.0662C239.827 98.9535 239.739 98.8051 239.7 98.6408C239.662 98.4766 239.675 98.3046 239.738 98.148L239.757 98.1003C240.015 97.4845 240.029 96.7937 239.795 96.1684C239.474 95.567 238.935 95.1111 238.289 94.8938C236.719 94.4011 235.054 94.294 233.434 94.5816C229.949 95.0671 226.516 95.8741 223.18 96.9922L223.172 96.9948C223.06 97.0301 222.943 97.0459 222.826 97.0413C219.714 96.9109 216.566 98.287 213.318 99.3013C211.677 99.8124 210.127 100.386 208.319 100.767C206.586 101.129 204.884 101.312 203.174 101.51C196.348 102.146 189.547 102.366 182.74 102.446L180.188 102.47L178.912 102.478L178.274 102.48C178.051 102.481 177.793 102.473 177.554 102.452C176.089 102.314 174.712 101.687 173.647 100.67C173.289 100.316 173.046 100.041 172.739 99.7218L165.78 92.2775C161.144 87.3109 156.542 82.3113 151.975 77.2787C151.957 77.2595 151.948 77.2342 151.949 77.2082C151.949 77.1822 151.96 77.1575 151.979 77.1395C151.998 77.1214 152.023 77.1113 152.049 77.1113C152.075 77.1114 152.1 77.1216 152.118 77.1397C157.005 81.8637 161.852 86.6262 166.659 91.4273L173.872 98.626C174.161 98.9129 174.493 99.2617 174.746 99.4977C175.559 100.237 176.598 100.681 177.694 100.758C178.032 100.784 178.448 100.757 178.883 100.748L180.154 100.71L182.695 100.624C189.466 100.344 196.255 100.078 202.951 99.3787C204.613 99.1901 206.294 99.0083 207.888 98.6764C209.409 98.3681 211.062 97.7777 212.661 97.2791C214.274 96.7621 215.882 96.2231 217.566 95.7553C219.297 95.229 221.102 94.989 222.909 95.0447L222.556 95.0938C224.312 94.5469 226.05 94.0812 227.827 93.6741C229.61 93.2536 231.417 92.9413 233.237 92.739C234.173 92.6387 235.115 92.6043 236.056 92.6361C237.061 92.6695 238.052 92.8842 238.982 93.2698C240.034 93.6801 240.887 94.4813 241.363 95.506C241.578 96.0409 241.669 96.6174 241.63 97.1925C241.599 97.7503 241.465 98.2976 241.236 98.807L241.041 97.8416C241.41 98.1935 241.745 98.5803 242.039 98.9967C242.34 99.4119 242.594 99.8597 242.794 100.332C243.003 100.835 243.128 101.369 243.162 101.912C243.177 102.484 243.069 103.052 242.846 103.578L242.829 102.938C243.252 103.837 243.585 104.777 243.823 105.742C243.95 106.241 244.029 106.751 244.058 107.265C244.105 107.838 244.022 108.415 243.816 108.952L243.797 108.405C244.024 108.912 244.159 109.455 244.194 110.008C244.236 110.604 244.099 111.198 243.8 111.715L243.711 110.98C243.779 111.05 243.83 111.136 243.859 111.23C243.888 111.324 243.894 111.424 243.877 111.521C243.854 111.653 243.788 111.773 243.689 111.862C243.643 111.904 243.592 111.94 243.537 111.966L243.788 111.732C243.582 112.072 243.293 112.355 242.949 112.555C242.631 112.756 242.284 112.907 241.92 113.003C241.552 113.082 241.173 113.093 240.8 113.035C240.47 112.974 240.146 112.884 239.831 112.768C238.696 112.395 237.529 112.125 236.345 111.961C235.232 111.739 234.077 111.856 233.03 112.295C232.01 112.992 230.943 113.62 229.839 114.175C227.564 115.252 225.066 115.774 222.551 115.696C220.067 115.617 217.606 115.187 215.242 114.418L215.347 114.432C212.773 114.745 210.239 115.332 207.789 116.182C205.309 116.981 202.886 117.955 200.497 118.997C198.121 120.071 195.762 121.181 193.457 122.403C191.111 123.571 188.954 124.947 186.461 126.084C181.463 128.287 175.89 128.828 170.562 127.626C167.914 127.024 165.377 126.009 163.045 124.618C160.745 123.208 158.654 121.482 156.834 119.491L156.903 119.554C152.892 116.212 148.979 112.763 145.076 109.299C143.121 107.571 141.203 105.8 139.321 103.987C138.376 103.086 137.446 102.169 136.53 101.235C136.082 100.756 135.62 100.296 135.196 99.792L134.56 99.0397C134.361 98.7734 134.183 98.4855 133.997 98.2122C133.983 98.1905 133.977 98.164 133.982 98.1384C133.987 98.1129 134.002 98.0902 134.023 98.0754C134.045 98.0606 134.071 98.0548 134.097 98.0592C134.122 98.0637 134.145 98.078 134.16 98.0992L134.173 98.1178Z" fill="white"/>
<path d="M227.689 98.6044C229.786 97.934 231.943 97.4673 234.129 97.2107C235.233 97.0762 236.347 97.0557 237.454 97.1498C238.608 97.2046 239.726 97.5697 240.69 98.2066C240.757 98.2558 240.802 98.3297 240.815 98.412C240.827 98.4943 240.807 98.5783 240.758 98.6455C240.708 98.7127 240.634 98.7576 240.552 98.7703C240.47 98.783 240.386 98.7625 240.319 98.7133L240.303 98.701C239.448 98.0875 238.445 97.7134 237.398 97.6172C236.323 97.4747 235.237 97.4433 234.155 97.5235C231.97 97.6753 229.805 98.0373 227.689 98.6044ZM230.552 102.29C232.518 101.863 234.518 101.608 236.528 101.529C237.545 101.495 238.562 101.557 239.567 101.715C240.64 101.832 241.64 102.314 242.4 103.081C242.455 103.143 242.484 103.225 242.479 103.308C242.473 103.391 242.436 103.469 242.373 103.524C242.342 103.552 242.306 103.573 242.267 103.586C242.228 103.6 242.187 103.605 242.146 103.603C242.063 103.598 241.985 103.56 241.93 103.497L241.918 103.483L241.907 103.47C241.264 102.777 240.406 102.321 239.472 102.176C238.503 101.973 237.518 101.862 236.529 101.843C234.527 101.818 232.528 101.968 230.552 102.29ZM231.607 106.289C233.646 105.919 235.725 105.818 237.79 105.987C238.839 106.064 239.87 106.289 240.855 106.658C241.883 107.022 242.788 107.667 243.466 108.521C243.491 108.554 243.51 108.591 243.52 108.631C243.531 108.671 243.533 108.713 243.527 108.754C243.521 108.795 243.508 108.835 243.487 108.87C243.466 108.906 243.438 108.937 243.405 108.962C243.371 108.987 243.334 109.005 243.294 109.015C243.253 109.025 243.212 109.027 243.171 109.021C243.13 109.015 243.09 109.001 243.055 108.98C243.019 108.959 242.988 108.931 242.964 108.897L242.955 108.885L242.95 108.878C242.373 108.083 241.584 107.464 240.674 107.093C239.743 106.69 238.759 106.423 237.753 106.299C235.713 106.028 233.647 106.025 231.607 106.289ZM199.164 5.75732V66.3269L283.238 73.785V5.75732H199.164ZM273.972 64.7449L207.752 59.3206V13.8935L273.972 13.2154V64.7449Z" fill="white"/>
<path d="M246.837 76.483V70.5559L237.571 69.7339V75.5531C231.944 75.705 227.752 77.2486 227.531 79.5257C227.254 82.3831 233.331 85.311 241.106 86.0656C248.88 86.82 255.407 85.115 255.685 82.2576C255.902 80.0139 252.201 77.7271 246.837 76.483ZM160.145 85.5638C164.744 82.6329 169.396 79.791 174.063 76.9751C174.118 76.943 174.182 76.9308 174.244 76.9404C178.563 77.6041 182.866 78.3651 187.167 79.1371C191.466 79.9198 195.78 80.6113 200.101 81.2605L213.063 83.2157C217.378 83.8979 221.7 84.5463 226.009 85.2695C226.094 85.2835 226.17 85.3307 226.22 85.4009C226.271 85.471 226.291 85.5583 226.277 85.6435C226.263 85.7263 226.218 85.8006 226.151 85.8513C222.952 88.2536 219.73 90.6257 216.485 92.9676L211.636 96.5031L206.755 99.9975C206.748 100.002 206.74 100.004 206.732 100.003C206.724 100.002 206.717 99.9973 206.712 99.9907C206.707 99.9842 206.705 99.9759 206.706 99.9678C206.707 99.9597 206.711 99.9523 206.717 99.9472L211.447 96.2508L216.207 92.5957C219.375 90.1518 222.56 87.73 225.761 85.3302L225.904 85.912C221.588 85.2378 217.283 84.4886 212.973 83.7735L200.057 81.5365C195.752 80.7882 191.44 80.0824 187.113 79.4676C182.788 78.8423 178.465 78.2058 174.158 77.4722L174.339 77.4375C169.647 80.2112 164.939 82.959 160.177 85.6176C160.17 85.6216 160.162 85.6227 160.154 85.6206C160.146 85.6184 160.139 85.6133 160.135 85.6063C160.131 85.5993 160.13 85.591 160.132 85.583C160.133 85.5751 160.138 85.5682 160.145 85.5638ZM165.719 91.3346C168.364 92.0112 170.988 92.7537 173.61 93.5061L181.451 95.8375L189.249 98.3077C191.841 99.1565 194.43 100.015 196.998 100.94C194.353 100.264 191.729 99.5214 189.108 98.7693L181.267 96.4369L173.469 93.9656C170.877 93.1172 168.288 92.2588 165.719 91.3346Z" fill="white"/>
<path d="M244.108 43.2913L246.005 43.0999C246.654 43.0649 260.199 42.9942 260.858 43.0004C260.894 43.0012 260.929 43.0344 260.955 43.0929C260.98 43.1514 260.995 43.2305 260.995 43.3132C261.003 45.0453 261.002 44.8206 260.987 46.5529C260.98 48.285 260.96 49.0388 260.932 50.771L260.932 50.7827C260.931 50.804 260.929 50.825 260.925 50.8444C260.922 50.8638 260.916 50.8813 260.909 50.8958C260.902 50.9104 260.894 50.9217 260.886 50.9291C260.877 50.9366 260.867 50.94 260.858 50.9392C260.216 50.8906 246.685 50.8568 246.043 50.8715C245.401 50.8781 244.76 50.9508 244.118 50.9999C244.105 51.0008 244.092 50.9961 244.08 50.9859C244.068 50.9757 244.057 50.9602 244.048 50.9404C244.039 50.9206 244.031 50.8967 244.026 50.8703C244.021 50.8439 244.018 50.8153 244.017 50.7863L244.017 50.771C243.988 49.0094 244 48.2099 244.02 46.4604C244.037 44.7085 244.07 44.9421 244.108 43.2913Z" fill="white"/>
<path d="M221.747 31.7919C221.835 33.6455 221.912 33.4249 221.952 35.1752C221.997 36.9279 222.025 37.6514 221.958 39.3919L221.725 39.1581C223.219 39.2083 224.713 39.2826 226.207 39.2894C227.701 39.3043 259.195 39.2698 260.689 39.2201L260.518 39.3919C260.452 37.6215 260.405 36.8511 260.389 35.0809C260.354 33.3105 260.352 33.5401 260.37 31.7699L260.689 32.0893C259.235 32.0957 227.775 32.0234 226.297 31.9875L221.747 31.7919ZM221.702 31.7474L226.117 31.5518C227.627 31.516 259.155 31.4438 260.689 31.4501C260.774 31.4509 260.855 31.4849 260.914 31.5447C260.974 31.6044 261.008 31.6853 261.009 31.7698C261.026 33.5401 261.024 33.3104 260.99 35.0808C260.974 36.851 260.926 37.6214 260.861 39.3918L260.861 39.4038C260.86 39.4256 260.855 39.447 260.846 39.4668C260.837 39.4866 260.824 39.5045 260.808 39.5194C260.792 39.5342 260.774 39.5458 260.753 39.5534C260.733 39.561 260.711 39.5645 260.689 39.5637C259.195 39.514 227.701 39.4795 226.207 39.4945C224.713 39.5012 223.219 39.5755 221.725 39.6257C221.695 39.6267 221.665 39.6218 221.638 39.6114C221.61 39.601 221.584 39.5852 221.563 39.5649C221.541 39.5446 221.524 39.5203 221.511 39.4933C221.499 39.4663 221.492 39.4371 221.491 39.4074L221.491 39.3918C221.424 37.5914 221.452 36.7743 221.497 34.9863C221.537 33.1958 221.614 33.4346 221.702 31.7474Z" fill="white"/>
<path d="M221.296 20.3422C221.384 22.1958 221.461 21.9752 221.501 23.7255C221.546 25.4782 221.574 26.2017 221.507 27.9421L221.274 27.7084C222.768 27.7586 224.262 27.8329 225.756 27.8397C227.25 27.8546 258.744 27.8201 260.238 27.7704L260.067 27.9421C260.001 26.1718 259.954 25.4014 259.938 23.6312C259.904 21.8608 259.901 22.0904 259.919 20.3202L260.238 20.6396C258.784 20.646 227.324 20.5737 225.846 20.5378L221.296 20.3422ZM221.251 20.2977L225.666 20.1021C227.176 20.0663 258.704 19.9941 260.238 20.0004C260.323 20.0012 260.404 20.0352 260.463 20.0949C260.523 20.1547 260.557 20.2356 260.558 20.3201C260.575 22.0904 260.573 21.8607 260.539 23.6311C260.523 25.4013 260.476 26.1717 260.41 27.9421L260.41 27.9541C260.409 27.9759 260.404 27.9973 260.395 28.0171C260.386 28.0369 260.373 28.0548 260.357 28.0696C260.341 28.0845 260.323 28.0961 260.302 28.1037C260.282 28.1113 260.26 28.1148 260.238 28.114C258.744 28.0643 227.25 28.0298 225.756 28.0448C224.262 28.0515 222.768 28.1258 221.274 28.176C221.244 28.177 221.214 28.1721 221.187 28.1617C221.159 28.1513 221.133 28.1355 221.112 28.1152C221.09 28.0949 221.073 28.0706 221.06 28.0436C221.048 28.0166 221.041 27.9874 221.04 27.9577L221.04 27.9421C220.973 26.1417 221.001 25.3246 221.046 23.5366C221.086 21.7461 221.163 21.9849 221.251 20.2977Z" fill="white"/>
<path d="M254.705 80.0693C256.291 79.8539 257.895 79.8072 259.49 79.9302C261.13 80.0088 262.737 80.4217 264.212 81.1435C264.983 81.5443 265.647 82.1228 266.15 82.8313C266.651 83.5709 266.928 84.4391 266.949 85.3321C266.964 86.1894 266.836 87.0431 266.569 87.8578C266.332 88.6961 265.926 89.4771 265.376 90.1526C264.825 90.8281 264.151 91.3919 263.388 91.8133C262.672 92.2269 261.92 92.5764 261.143 92.8579C259.595 93.4342 257.963 93.752 256.312 93.7983C254.683 93.8321 253.058 93.6206 251.492 93.1708C249.99 92.7075 248.39 92.6588 246.862 93.0299C247.576 92.6419 248.373 92.4285 249.185 92.4072C249.996 92.3544 250.809 92.3827 251.614 92.4917C253.144 92.7674 254.703 92.8464 256.253 92.7268C257.779 92.6026 259.279 92.2599 260.708 91.7092C261.419 91.4341 262.108 91.1065 262.769 90.7291C263.408 90.3922 263.974 89.9344 264.438 89.3813C264.902 88.8283 265.258 88.1924 265.485 87.5072C265.736 86.8177 265.869 86.0911 265.88 85.3576C265.894 84.6535 265.708 83.9598 265.344 83.357C264.948 82.7484 264.416 82.2407 263.79 81.8746C262.44 81.122 260.962 80.6272 259.431 80.4155C257.868 80.1663 256.287 80.0505 254.705 80.0693Z" fill="white"/>
<path d="M248.237 97.2858C248.237 97.2858 247.967 106.106 243.277 111.405C243.466 110.976 243.557 110.512 243.545 110.044C243.533 109.577 243.418 109.117 243.208 108.699C243.962 106.891 242.154 103.275 242.154 103.275C243.208 100.864 240.496 98.4534 240.496 98.4534C240.496 98.4534 242.154 94.9879 237.784 93.7826C237.784 93.7826 249.725 88.2079 248.237 97.2858Z" fill="white"/>
<path d="M273.87 163.264C273.827 163.264 273.785 163.258 273.745 163.244L192.934 136.523C192.884 136.506 192.837 136.48 192.798 136.446C192.758 136.412 192.725 136.37 192.702 136.323C192.678 136.276 192.664 136.225 192.66 136.172C192.656 136.12 192.663 136.067 192.679 136.017C192.696 135.968 192.722 135.921 192.756 135.882C192.79 135.842 192.832 135.809 192.879 135.786C192.926 135.762 192.977 135.748 193.03 135.744C193.082 135.74 193.135 135.747 193.185 135.763L273.826 162.429L377.659 103.042V98.2787L185.089 63.1586L153.553 75.3217C153.454 75.3594 153.344 75.3565 153.247 75.3135C153.151 75.2704 153.075 75.1909 153.037 75.0922C152.999 74.9934 153.001 74.8836 153.044 74.7868C153.087 74.69 153.166 74.614 153.265 74.5756L184.906 62.3714C184.975 62.3467 185.049 62.3396 185.121 62.351L378.13 97.5512C378.222 97.568 378.306 97.6167 378.365 97.6886C378.425 97.7605 378.458 97.8511 378.458 97.9447V103.275C378.459 103.345 378.44 103.414 378.405 103.475C378.369 103.536 378.318 103.587 378.257 103.621L274.069 163.211C274.008 163.246 273.94 163.264 273.87 163.264Z" fill="white"/>
<path d="M273.644 158.207C273.612 158.207 273.58 158.202 273.549 158.192L187.667 131.021C187.628 131.009 187.591 130.989 187.56 130.962C187.528 130.936 187.502 130.903 187.483 130.867C187.445 130.793 187.438 130.707 187.463 130.628C187.488 130.548 187.543 130.482 187.617 130.444C187.691 130.406 187.777 130.398 187.856 130.423L273.607 157.552L377.902 97.6725C377.938 97.652 377.977 97.6387 378.018 97.6334C378.059 97.6282 378.101 97.631 378.141 97.6418C378.18 97.6526 378.218 97.6711 378.25 97.6963C378.283 97.7215 378.31 97.7529 378.331 97.7887C378.351 97.8245 378.365 97.8639 378.37 97.9049C378.375 97.9458 378.372 97.9873 378.362 98.0271C378.351 98.0669 378.332 98.1042 378.307 98.1369C378.282 98.1695 378.251 98.1969 378.215 98.2174L273.8 158.166C273.753 158.193 273.699 158.207 273.644 158.207Z" fill="white"/>
<path d="M273.87 163.179C273.789 163.179 273.711 163.148 273.653 163.092C273.595 163.036 273.56 162.96 273.557 162.88L273.33 157.908C273.328 157.867 273.335 157.826 273.349 157.787C273.363 157.748 273.384 157.713 273.412 157.682C273.44 157.652 273.473 157.627 273.511 157.609C273.548 157.592 273.589 157.582 273.63 157.58C273.712 157.579 273.792 157.61 273.852 157.665C273.913 157.72 273.951 157.797 273.957 157.879L274.183 162.851C274.185 162.892 274.179 162.933 274.165 162.972C274.151 163.011 274.13 163.046 274.102 163.077C274.074 163.107 274.041 163.132 274.003 163.149C273.966 163.167 273.925 163.177 273.884 163.179H273.87Z" fill="white"/>
<path d="M273.899 161.404L274.527 199.795L274.997 238.186C275.167 250.983 275.517 263.78 275.311 276.577C275.198 282.975 275.085 289.374 274.836 295.772L274.458 305.37C274.269 308.569 274.14 311.768 273.899 314.968C273.896 315.007 273.878 315.044 273.849 315.071C273.82 315.098 273.782 315.113 273.742 315.113C273.702 315.113 273.664 315.098 273.635 315.071C273.606 315.044 273.588 315.007 273.585 314.968C273.344 311.768 273.214 308.569 273.026 305.37L272.648 295.772C272.399 289.374 272.285 282.975 272.172 276.577C271.967 263.78 272.317 250.983 272.486 238.186L272.957 199.795L273.585 161.404C273.586 161.363 273.602 161.324 273.632 161.295C273.661 161.266 273.701 161.25 273.742 161.25C273.783 161.25 273.823 161.266 273.852 161.295C273.881 161.324 273.898 161.363 273.899 161.404ZM370.079 108.7L370.707 147.091L371.178 185.481C371.348 198.278 371.697 211.075 371.492 223.872C371.379 230.271 371.265 236.669 371.016 243.068L370.639 252.665C370.45 255.865 370.32 259.064 370.079 262.263C370.076 262.303 370.058 262.34 370.029 262.367C370 262.393 369.962 262.408 369.922 262.408C369.883 262.408 369.844 262.393 369.815 262.367C369.786 262.34 369.768 262.303 369.765 262.263C369.525 259.064 369.395 255.865 369.206 252.665L368.828 243.068C368.579 236.669 368.466 230.271 368.353 223.872C368.147 211.075 368.497 198.278 368.667 185.481L369.138 147.091L369.765 108.7C369.766 108.658 369.783 108.619 369.812 108.59C369.842 108.561 369.881 108.545 369.922 108.545C369.964 108.545 370.003 108.561 370.033 108.59C370.062 108.619 370.079 108.658 370.079 108.7H370.079ZM210.136 214.169C210.136 214.169 217.316 214.767 241.981 231.702C246.016 234.526 250.954 235.755 255.842 235.154C257.145 235.009 258.42 234.682 259.631 234.181C259.631 234.181 278.39 239.03 261.665 242.194C261.665 242.194 237.709 242.872 219.854 229.764L220.08 236.996H211.04C211.04 236.996 206.972 218.237 210.136 214.169Z" fill="white"/>
<path d="M217.81 186.619C219.197 188.955 220.513 191.328 221.866 193.681L225.806 200.804C227.135 203.169 228.383 205.583 229.671 207.963C230.945 210.312 232.467 212.518 234.213 214.542C235.071 215.565 235.981 216.542 236.941 217.469C237.898 218.391 238.932 219.264 239.955 220.154C241.998 221.932 244.094 223.644 246.167 225.384C248.252 227.107 250.374 228.788 252.57 230.362C253.658 231.163 254.772 231.928 255.928 232.624L256.804 233.13L257.71 233.576C258.316 233.874 258.964 234.078 259.631 234.181C258.269 234.037 256.952 233.605 255.768 232.915C254.552 232.294 253.375 231.601 252.224 230.871C249.938 229.386 247.737 227.782 245.567 226.141C243.387 224.511 241.304 222.763 239.215 221.024C238.18 220.148 237.126 219.286 236.115 218.34C233.08 215.516 230.559 212.187 228.665 208.5C227.42 206.081 226.152 203.689 224.955 201.251L221.324 193.966C220.154 191.516 218.946 189.086 217.81 186.619ZM201.218 203.22C203.031 204.744 204.688 206.445 206.164 208.298C207.682 210.116 209.013 212.083 210.136 214.169C208.321 212.647 206.664 210.946 205.191 209.091C203.674 207.271 202.343 205.304 201.218 203.22ZM158.582 269.167C158.582 269.167 165.778 268.804 192.478 282.304C196.853 284.565 201.911 285.126 206.675 283.879C207.947 283.563 209.168 283.068 210.301 282.411C210.301 282.411 229.538 284.719 213.384 290.081C213.384 290.081 189.731 293.943 170.29 283.328L171.477 290.466L162.517 291.67C162.517 291.67 155.988 273.62 158.582 269.167Z" fill="white"/>
<path d="M174.612 81.2348L174.439 82.2188L175.424 82.3916L175.596 81.4077L174.612 81.2348Z" fill="white"/>
<path d="M210.721 88.5664L208.76 88.2236L208.932 87.2393L210.892 87.582L210.721 88.5664ZM206.798 87.8809L204.837 87.5381L205.009 86.5537L206.97 86.8965L206.798 87.8809ZM202.876 87.1953L200.915 86.8526L201.087 85.8682L203.048 86.211L202.876 87.1953ZM198.954 86.5098L196.993 86.166L197.166 85.1816L199.127 85.5254L198.954 86.5098ZM195.033 85.8233L193.072 85.4805L193.244 84.4961L195.204 84.8389L195.033 85.8233ZM191.111 85.1377L189.15 84.7949L189.322 83.8106L191.283 84.1533L191.111 85.1377ZM187.188 84.4522L185.227 84.1094L185.399 83.125L187.36 83.4678L187.188 84.4522ZM183.266 83.7656L181.306 83.4229L181.477 82.4385L183.438 82.7812L183.266 83.7656ZM179.345 83.0801L177.384 82.7373L177.556 81.7529L179.516 82.0957L179.345 83.0801Z" fill="white"/>
<path d="M212.855 87.9223L212.682 88.9062L213.667 89.0791L213.84 88.0952L212.855 87.9223Z" fill="white"/>
<path d="M171.388 84.6695L171.179 85.6484L172.157 85.8574L172.366 84.8785L171.388 84.6695Z" fill="white"/>
<path d="M206.455 93.1641L204.55 92.7578L204.759 91.7793L206.664 92.1856L206.455 93.1641ZM202.645 92.3526L200.74 91.9463L200.948 90.9678L202.853 91.374L202.645 92.3526ZM198.834 91.5401L196.929 91.1348L197.137 90.1562L199.042 90.5615L198.834 91.5401ZM195.023 90.7285L193.118 90.3223L193.327 89.3438L195.232 89.75L195.023 90.7285ZM191.212 89.916L189.307 89.5108L189.515 88.5322L191.42 88.9375L191.212 89.916ZM187.402 89.1045L185.496 88.6983L185.704 87.7197L187.61 88.126L187.402 89.1045ZM183.59 88.293L181.685 87.8867L181.894 86.9082L183.799 87.3145L183.59 88.293ZM179.779 87.4805L177.874 87.0742L178.083 86.0957L179.988 86.502L179.779 87.4805ZM175.968 86.669L174.063 86.2627L174.272 85.2842L176.177 85.6904L175.968 86.669Z" fill="white"/>
<path d="M208.571 92.5895L208.362 93.5684L209.34 93.7773L209.549 92.7984L208.571 92.5895Z" fill="white"/>
<path d="M174.468 90.4336C176.176 90.5309 177.869 90.8161 179.514 91.284C181.172 91.7095 182.777 92.3183 184.299 93.0991C182.591 93.0038 180.898 92.7186 179.253 92.2485C177.596 91.821 175.992 91.2124 174.468 90.4336Z" fill="white"/>
</svg>
