<svg width="262" height="372" viewBox="0 0 262 372" fill="none" xmlns="http://www.w3.org/2000/svg">
<path d="M193.902 172.535L219.962 183.435C218.612 183.805 217.283 184.225 215.942 184.615L211.973 185.895C209.322 186.745 206.692 187.675 204.072 188.605C201.453 189.555 198.832 190.505 196.243 191.535C193.692 192.535 191.132 193.555 188.622 194.665C187.223 185.685 185.122 176.095 182.372 173.865L193.902 172.535ZM219.962 183.435V201.955C215.142 204.195 204.342 207.735 190.712 211.795C190.712 211.795 190.002 203.535 188.622 194.685C191.272 193.945 193.902 193.115 196.502 192.255C199.152 191.405 201.783 190.475 204.402 189.545C207.022 188.595 209.642 187.645 212.232 186.615L216.112 185.075C217.392 184.525 218.692 184.015 219.962 183.435ZM32.9525 193.225C33.9423 192.925 34.9125 192.595 35.8724 192.205L34.5424 197.485C33.2487 196.21 31.876 195.018 30.4325 193.915C31.2723 193.705 32.1224 193.485 32.9525 193.225Z" fill="#020288"/>
<path d="M121.462 213.445C107.552 211.205 69.5023 198.825 62.6522 193.615C57.6122 189.775 51.8421 183.485 51.0921 168.485C49.9925 175.315 48.8627 182.145 47.7025 188.975L47.6625 189.215C48.5134 188.735 49.4296 188.382 50.3822 188.165C51.4529 187.892 52.5622 187.804 53.6625 187.905C52.7245 188.489 51.6925 188.905 50.6122 189.135C49.639 189.38 48.634 189.475 47.6322 189.415L44.9022 205.265C47.3924 206.955 49.8622 208.655 52.3021 210.405L56.1424 213.145L59.9525 215.935C62.4925 217.795 65.0423 219.635 67.5423 221.555C70.0423 223.465 72.5721 225.325 75.0521 227.275L75.0624 227.285C75.1174 227.336 75.1558 227.402 75.1722 227.475C77.0921 226.925 79.0326 226.415 80.9622 225.885L87.1322 224.305C91.2523 223.265 95.3822 222.305 99.5023 221.305C103.652 220.375 107.783 219.405 111.932 218.525C116.082 217.635 120.232 216.765 124.412 216.005C120.332 217.165 116.212 218.225 112.102 219.265C107.993 220.315 103.852 221.265 99.7323 222.275C95.5921 223.195 91.4623 224.165 87.3123 225.055L81.0824 226.365C79.1121 226.745 77.1522 227.145 75.1824 227.505C75.1824 227.515 75.2024 227.525 75.2024 227.535C75.5623 231.565 75.9022 235.595 76.1424 239.635C75.512 235.695 74.9822 231.745 74.4725 227.785C71.9422 225.995 69.4725 224.135 66.9725 222.315C64.4222 220.475 61.9222 218.555 59.4124 216.665L55.6424 213.815L51.9222 210.915C49.5521 209.085 47.2122 207.205 44.8924 205.305L44.0921 209.965C44.072 210.078 44.0081 210.178 43.9144 210.244C43.8207 210.309 43.7048 210.335 43.5921 210.315C43.5677 210.313 43.544 210.307 43.5223 210.295L32.6824 206.525C32.5732 206.484 32.4826 206.405 32.4274 206.302C32.3722 206.199 32.3561 206.079 32.3822 205.965L34.5023 197.625C32.6503 196.613 30.8726 195.47 29.1825 194.205C27.8524 195.165 26.5423 196.135 25.2024 197.085C23.7424 198.095 22.302 199.135 20.8221 200.135C22.1824 198.985 23.5623 197.865 24.9422 196.735C26.2225 195.685 27.5223 194.665 28.8221 193.635C28.8319 193.562 28.8558 193.49 28.8924 193.425C28.1224 190.465 27.4422 187.485 26.7322 184.505C25.9822 181.425 25.2922 178.325 24.6224 175.225C23.9222 172.125 23.2523 169.025 22.6321 165.905C21.9822 162.795 21.3821 159.685 20.8221 156.555C21.6824 159.615 22.5022 162.685 23.262 165.765C24.0623 168.835 24.802 171.925 25.5223 175.015C26.262 178.105 26.9823 181.195 27.6424 184.295C28.2923 187.235 28.9524 190.175 29.552 193.125C30.6224 192.875 31.6922 192.645 32.7723 192.455C33.8123 192.275 34.8523 192.135 35.9124 192.045L37.0823 187.455L41.8421 168.945L41.8523 168.915V168.905C42.4498 167.288 42.9211 165.626 43.262 163.935C43.6527 162.29 43.6425 160.576 43.2322 158.935C42.9813 158.156 42.5254 157.458 41.9124 156.915C41.5902 156.645 41.2494 156.398 40.8924 156.175L40.3324 155.805L40.0423 155.565C40.0023 155.555 39.9725 155.525 39.8622 155.485C38.1842 155.103 36.479 154.853 34.7621 154.735C27.8021 154.105 20.8124 153.735 13.8324 153.355C17.3221 153.405 20.8221 153.505 24.3221 153.635C27.8221 153.765 31.3124 153.905 34.8124 154.175C35.6825 154.245 36.5624 154.325 37.4325 154.425C38.3315 154.495 39.222 154.649 40.0921 154.885C40.2369 154.931 40.3724 155.003 40.4925 155.095L40.7123 155.275L41.2523 155.615C41.6415 155.847 42.0125 156.108 42.3621 156.395C43.0793 157.008 43.6181 157.803 43.9222 158.695C44.4008 160.451 44.4522 162.296 44.0721 164.075C43.7481 165.811 43.2798 167.517 42.6722 169.175L38.012 187.686L33.3924 205.785L43.3324 209.305L47.1424 188.876C48.4324 182.055 49.749 175.239 51.0921 168.425C50.8702 161.862 51.3328 155.293 52.4725 148.825L34.1624 146.905C32.3176 146.736 30.5707 145.999 29.1624 144.795C27.6638 144.576 26.1782 144.276 24.7123 143.895C24.3324 143.805 23.9525 143.705 23.5721 143.585C23.3822 143.525 23.1922 143.465 22.9925 143.395C22.9701 143.385 22.9465 143.379 22.9222 143.375H22.8924C22.8246 143.383 22.7577 143.396 22.6922 143.415C21.9864 143.636 21.3032 143.924 20.6522 144.275C19.2723 144.945 17.9125 145.685 16.5326 146.385C15.1625 147.115 13.7621 147.805 12.3422 148.465C14.7807 146.499 17.4185 144.793 20.2123 143.375C20.9416 143.005 21.7053 142.707 22.4926 142.485C22.6209 142.46 22.7514 142.447 22.8822 142.445C23.0398 142.454 23.1951 142.488 23.3422 142.545C23.5024 142.625 23.6825 142.685 23.8524 142.755L24.9423 143.155C26.3324 143.645 27.7226 144.165 29.1024 144.735C27.6523 143.355 26.6122 141.125 27.2226 137.485L28.1523 112.795L24.4023 112.025C24.4023 112.025 21.6425 112.645 27.0922 96.9054L35.8022 71.8554C35.8022 71.8554 1.59221 76.0754 0.352495 77.3154C-0.887735 78.5554 7.54243 162.115 19.2026 202.035C19.2026 202.035 72.2622 239.975 75.4824 241.215C77.0522 241.805 106.462 234.755 138.592 226.285C138.592 226.285 135.362 215.685 121.462 213.445ZM9.32213 96.0753C8.51207 91.1553 7.7323 86.2353 7.05214 81.2953C8.13222 86.1653 9.11219 91.0553 10.0721 95.9453C11.0326 100.835 11.9125 105.745 12.8324 110.645C13.6722 115.555 14.5624 120.465 15.3622 125.385L16.5521 132.765C16.9125 135.235 17.3021 137.695 17.6322 140.165C17.0824 137.735 16.5922 135.295 16.0624 132.855L14.6024 125.515C13.6424 120.625 12.7723 115.715 11.8524 110.815C11.0121 105.905 10.1224 101.005 9.32213 96.0753ZM101.772 38.1353C99.9525 38.1353 97.6322 39.1253 95.3221 39.6253C93.0121 40.1253 87.7225 39.1253 87.2225 37.6453C86.7225 36.1553 83.6024 23.8753 83.0921 24.4553C82.5921 25.0353 81.6024 26.0653 81.6024 26.0653C81.6024 26.0653 81.4325 41.0253 81.7621 42.6353C82.1024 44.2553 88.2123 52.3553 97.3021 51.5253C106.392 50.6953 107.722 39.9553 107.722 39.9553C107.722 39.9553 103.582 38.1353 101.772 38.1353ZM103.272 42.5753C102.605 42.9865 101.824 43.1756 101.042 43.1153C100.283 43.0573 99.5471 42.8246 98.8924 42.4353C98.2556 42.0664 97.7117 41.5568 97.3021 40.9453C98.4893 41.56 99.7759 41.9595 101.102 42.1253C101.723 42.1719 102.347 42.0867 102.932 41.8753C103.567 41.6293 104.173 41.3176 104.743 40.9453C104.424 41.6218 103.913 42.189 103.272 42.5753Z" fill="#020288"/>
<path d="M81.6017 26.0698C81.6017 26.0698 89.8669 18.3006 89.2056 8.7131C89.2056 8.7131 91.3546 6.72947 94.8259 10.0355C94.8259 10.0355 97.8013 10.862 101.273 7.22538C104.744 3.58873 106.562 8.87838 106.562 8.87838C106.562 8.87838 108.381 14.4987 108.877 13.0109C109.373 11.5232 110.199 4.41522 102.76 2.10099C96.976 0.377881 90.9294 -0.293959 84.9078 0.117369C82.9241 0.447969 78.7916 3.75401 78.7916 8.38247C78.7916 13.0109 76.808 18.7965 76.9733 20.6148C77.1386 22.4332 81.6017 26.0698 81.6017 26.0698ZM89.0404 24.0862C90.6435 23.4736 92.3646 23.2325 94.0744 23.3808C94.9345 23.4547 95.7815 23.6394 96.5944 23.9304C97.4024 24.2276 98.1481 24.6729 98.7931 25.2433C98.0307 24.9133 97.2427 24.6461 96.4369 24.4442C95.6398 24.2614 94.8308 24.1353 94.016 24.0667C92.3592 23.9535 90.6963 23.96 89.0404 24.0862ZM103.091 24.4563C103.754 23.73 104.57 23.1604 105.481 22.7889C106.384 22.3617 107.401 22.2369 108.381 22.4332C107.486 22.7182 106.607 23.0488 105.747 23.4237C104.885 23.7777 104.036 24.1629 103.091 24.4563ZM95.3218 27.5989C95.5897 27.5896 95.8434 27.4767 96.0296 27.284C96.2158 27.0912 96.3199 26.8337 96.3199 26.5657C96.3199 26.2977 96.2158 26.0402 96.0296 25.8475C95.8434 25.6547 95.5897 25.5418 95.3218 25.5326C95.054 25.5418 94.8002 25.6547 94.614 25.8475C94.4278 26.0402 94.3237 26.2977 94.3237 26.5657C94.3237 26.8337 94.4278 27.0912 94.614 27.284C94.8002 27.4767 95.054 27.5896 95.3218 27.5989ZM105.901 26.9377C106.169 26.9284 106.423 26.8155 106.609 26.6228C106.795 26.43 106.899 26.1725 106.899 25.9045C106.899 25.6365 106.795 25.379 106.609 25.1863C106.423 24.9935 106.169 24.8806 105.901 24.8714C105.633 24.8806 105.38 24.9935 105.193 25.1863C105.007 25.379 104.903 25.6365 104.903 25.9045C104.903 26.1725 105.007 26.43 105.193 26.6228C105.38 26.8155 105.633 26.9284 105.901 26.9377Z" fill="#020288"/>
<path d="M76.9733 20.6148C76.6119 20.7649 76.2889 20.9944 76.0281 21.2862C75.7673 21.578 75.5754 21.9247 75.4667 22.3006C75.2581 23.0433 75.2595 23.8293 75.4706 24.5713C75.9517 26.0893 76.5191 27.5785 77.1698 29.0318C77.7513 30.5513 78.2099 32.1149 78.5414 33.7077C78.6753 34.4554 79.0451 35.1406 79.5966 35.6629C79.8915 35.9193 80.2374 36.1103 80.6115 36.2233C80.9856 36.3363 81.3794 36.3687 81.767 36.3185C81.3657 36.4356 80.9433 36.4612 80.5309 36.3931C80.1184 36.3251 79.7265 36.1653 79.3842 35.9255C78.7097 35.3872 78.2307 34.6423 78.0206 33.8054C77.6169 32.2653 77.1176 30.7519 76.5258 29.2739C76.2504 28.5228 75.9691 27.7729 75.6691 27.0297C75.339 26.2738 75.0985 25.4819 74.9525 24.6702C74.7856 23.8389 74.8547 22.9775 75.152 22.1834C75.3103 21.7968 75.5579 21.4532 75.8744 21.1806C76.191 20.908 76.5675 20.7141 76.9733 20.6148ZM103.918 31.8553C104.312 32.9012 104.3 34.057 103.883 35.0942C103.654 35.6494 103.228 36.1003 102.686 36.36C102.154 36.5729 101.561 36.578 101.025 36.3743C101.522 36.3107 102 36.1449 102.43 35.8873C102.797 35.6123 103.082 35.2419 103.254 34.8162C103.598 33.861 103.821 32.8662 103.918 31.8553ZM108.877 13.0109C108.736 15.2807 108.732 17.5569 108.863 19.8273C108.932 20.9531 109.061 22.0745 109.252 23.1863C109.453 24.277 109.77 25.3945 109.962 26.5339C110.35 28.8223 110.325 31.1618 109.888 33.4414C109.412 35.6873 108.685 37.8724 107.719 39.9551C108.431 37.7978 108.981 35.5906 109.365 33.3517C109.712 31.1279 109.684 28.8617 109.283 26.6471C109.117 25.5334 108.828 24.4469 108.635 23.2919C108.447 22.1539 108.347 21.0031 108.336 19.8498C108.293 17.558 108.474 15.2674 108.877 13.0109ZM81.767 42.6367C81.63 43.9593 81.1371 45.22 80.3407 46.2847C79.9349 46.8256 79.4374 47.2912 78.8707 47.6601C78.297 48.0151 77.6381 48.2086 76.9635 48.2203C77.536 47.961 78.0712 47.6263 78.555 47.2252C79.0104 46.8153 79.4244 46.3616 79.7909 45.8706C80.1643 45.3716 80.5082 44.8511 80.8209 44.3119C81.1349 43.766 81.4586 43.2148 81.767 42.6367Z" fill="#020288"/>
<path d="M81.1185 44.4033C76.0949 45.4235 71.179 46.9163 66.4363 48.8616C63.9778 49.7542 61.407 50.3006 58.7979 50.4852C56.2626 50.6331 53.7375 50.9233 51.2347 51.3543C50.6701 51.4774 50.1283 51.6882 49.629 51.9792C49.0553 52.3347 48.4504 52.6373 47.8218 52.8832C46.6785 53.3077 45.6252 53.9436 44.7168 54.7575C42.983 56.5614 41.5577 58.6382 40.4981 60.9048C39.8973 62.0228 39.4178 63.2077 38.8899 64.3684C38.4126 65.5524 37.9329 66.7382 37.4851 67.9368C37.0628 69.1452 36.6148 70.3458 36.2125 71.5628L35.065 75.2344L35.0623 75.2433L35.0574 75.2573C32.6666 81.2391 30.4939 87.3039 28.5396 93.4519C27.5716 96.5229 26.657 99.6118 25.876 102.725C25.4908 104.282 25.1275 105.844 24.8555 107.408C24.7172 108.18 24.6222 108.959 24.5709 109.742C24.5485 110.112 24.5544 110.484 24.5884 110.854C24.5964 111.113 24.6743 111.365 24.8138 111.583L24.5296 111.438C30.2095 112.554 35.8936 113.668 41.5852 114.718L50.116 116.31L54.385 117.031C55.7707 117.271 57.1675 117.442 58.5703 117.543L58.9851 117.548C58.9861 117.525 58.9751 117.55 59.0003 117.534C59.0284 117.506 59.0601 117.481 59.0945 117.46C59.2841 117.24 59.4422 116.995 59.5642 116.731C59.8551 116.111 60.0956 115.468 60.2835 114.81C60.6672 113.438 60.9743 112.047 61.2034 110.642C61.6851 107.814 61.9417 104.942 62.1409 102.067C62.3218 99.1904 62.3805 96.3065 62.3171 93.4157C62.2751 90.5277 62.1035 87.6388 61.7798 84.7618C61.7781 84.7441 61.7833 84.7265 61.7943 84.7125C61.8052 84.6986 61.8212 84.6894 61.8387 84.6869C61.8563 84.6844 61.8741 84.6888 61.8886 84.6991C61.903 84.7094 61.9129 84.7249 61.9163 84.7423C62.4006 87.6018 62.7349 90.4898 62.939 93.3893C63.117 96.2901 63.1696 99.1971 63.097 102.11C63.0255 105.027 62.7862 107.937 62.3802 110.827C62.1774 112.286 61.8931 113.733 61.5286 115.16C61.3363 115.899 61.0838 116.622 60.7735 117.319C60.5981 117.717 60.3639 118.086 60.0787 118.414C59.9768 118.508 59.866 118.6 59.7547 118.686C59.6053 118.776 59.4448 118.847 59.2771 118.895C59.0425 118.918 58.8321 118.917 58.6075 118.924C57.1204 118.837 55.6394 118.668 54.1709 118.418L49.8692 117.714C47.0118 117.208 44.1563 116.702 41.3123 116.141C35.6265 115.006 29.9506 113.831 24.2847 112.616L24.2373 112.606C24.1462 112.586 24.0634 112.539 24.0003 112.47C23.6355 112.055 23.4294 111.524 23.4185 110.971C23.3873 110.537 23.3896 110.102 23.4253 109.668C23.4979 108.843 23.6168 108.023 23.7813 107.212C24.0958 105.605 24.5028 104.033 24.9537 102.477C25.8529 99.3646 26.8795 96.3018 27.9373 93.2519C29.0133 90.2083 30.096 87.1696 31.2103 84.1425L34.5848 75.0719L34.5773 75.0945C35.8651 70.094 37.5383 65.2008 39.5817 60.4586C40.6078 58.0195 42.0758 55.791 43.9118 53.8854C44.9117 52.9681 46.0732 52.2444 47.3373 51.751C47.9031 51.5231 48.4513 51.2537 48.9774 50.9451C49.5913 50.5913 50.2576 50.3377 50.9513 50.1938C53.5158 49.7822 56.1019 49.5191 58.6967 49.406C59.966 49.2944 61.2299 49.1591 62.4713 48.9315C63.715 48.74 64.9389 48.4367 66.1281 48.0252C70.9564 46.2008 75.9793 44.9397 81.0968 44.2672C81.1149 44.2646 81.1332 44.2693 81.1478 44.2803C81.1624 44.2912 81.1721 44.3076 81.1747 44.3256C81.1766 44.3432 81.1719 44.3609 81.1615 44.3752C81.1511 44.3896 81.1358 44.3995 81.1185 44.4033Z" fill="#020288"/>
<path d="M97.3355 58.7334C97.2226 59.3349 97.194 59.9493 97.2505 60.5587C97.2871 61.1755 97.3272 61.7914 97.3858 62.407L97.7632 66.097C98.0345 68.5557 98.3575 71.009 98.658 73.4648L99.1363 77.1451C99.4379 78.4395 99.24 79.7999 98.5822 80.9547C98.3658 81.2292 98.0973 81.4582 97.7921 81.6287C97.487 81.7992 97.1512 81.9078 96.804 81.9483C96.4569 81.9888 96.1051 81.9603 95.7689 81.8646C95.4327 81.7689 95.1188 81.6077 94.845 81.3904C94.5706 81.1758 94.3432 80.9072 94.1767 80.6012C94.0102 80.2953 93.9082 79.9584 93.8769 79.6115L93.6775 77.767C93.4009 75.309 93.1067 72.852 92.7317 70.4086C92.5527 69.1883 92.3093 67.9783 92.0024 66.7838C91.9273 66.4928 91.8238 66.2099 91.6934 65.9391C91.6674 65.8789 91.6279 65.8256 91.5778 65.7832C91.5278 65.7409 91.4687 65.7107 91.405 65.6951L90.9802 65.5112C90.4128 65.2664 89.8386 65.0364 89.2617 64.8132C86.9568 63.9151 84.6353 63.0563 82.2922 62.2692C81.1304 61.9015 79.9236 61.3762 78.8071 61.7441C78.2883 61.9934 77.8574 62.3945 77.5716 62.8941C77.2858 63.3938 77.1586 63.9685 77.2068 64.5422C77.2057 64.6071 77.1789 64.669 77.1323 64.7142C77.0856 64.7594 77.0229 64.7842 76.958 64.7832C76.9155 64.7822 76.8739 64.7702 76.8373 64.7486C76.8007 64.7269 76.7703 64.6962 76.749 64.6594C76.0998 63.5306 75.3696 62.4504 74.5642 61.4272C73.7852 60.4008 72.8738 59.4821 71.8537 58.695C71.3549 58.3197 70.7975 58.0292 70.2041 57.8353C69.5526 57.6295 68.9261 57.3516 68.3362 57.007C67.1332 56.3193 66.1165 55.3481 65.3745 54.1779C65.3645 54.1617 65.3565 54.1443 65.351 54.1261L65.3447 54.1047C65.1592 53.4165 65.2491 52.683 65.5952 52.0599C65.9144 51.4847 66.3327 50.9703 66.8308 50.5405C67.7871 49.7226 68.8409 49.0263 69.9683 48.4673C72.1782 47.3465 74.492 46.4435 76.8769 45.771C76.9375 45.7535 77.002 45.7548 77.0618 45.7747C77.1217 45.7946 77.1741 45.8321 77.2122 45.8824C77.2503 45.9326 77.2723 45.9933 77.2752 46.0562C77.2782 46.1192 77.2619 46.1816 77.2287 46.2352L77.2197 46.2499C76.8378 46.8941 76.5904 47.609 76.4927 48.3515C76.4365 48.7294 76.4058 49.1107 76.4007 49.4928C76.4339 49.8743 76.431 50.2612 76.4988 50.6405C76.7563 52.1802 77.3327 53.6492 78.1912 54.953C78.6107 55.6168 79.0649 56.2581 79.5518 56.8742C80.084 57.4542 80.5833 58.0666 81.1387 58.6275C81.7125 59.1695 82.2574 59.7461 82.857 60.2625L84.6805 61.7887C84.6841 61.7914 84.6872 61.7948 84.6895 61.7986C84.6919 61.8025 84.6934 61.8068 84.6941 61.8113C84.6948 61.8158 84.6946 61.8203 84.6935 61.8247C84.6924 61.8291 84.6905 61.8332 84.6878 61.8369C84.6821 61.8439 84.6739 61.8486 84.6649 61.8499C84.6559 61.8512 84.6467 61.849 84.6392 61.8439L82.7457 60.3941C82.1209 59.9016 81.5479 59.3462 80.9449 58.8239C80.355 58.2872 79.8392 57.6729 79.285 57.0971C78.7731 56.4802 78.2943 55.8366 77.8506 55.169C76.9277 53.8323 76.2944 52.3174 75.9913 50.7215C75.9107 50.3219 75.9019 49.909 75.8592 49.5022C75.8545 49.0907 75.8778 48.6794 75.929 48.2712C76.0196 47.4328 76.2846 46.6226 76.7071 45.8928L77.0496 46.3716C74.7266 47.0897 72.4676 48.0003 70.296 49.0938C69.2248 49.6293 68.2238 50.2947 67.3155 51.0751C66.8638 51.385 66.5058 51.8129 66.2805 52.3122C66.0553 52.8115 65.9714 53.363 66.0379 53.9067L66.0081 53.8339C66.6798 54.8977 67.5967 55.7849 68.6819 56.4212C69.2258 56.7465 69.8043 57.0101 70.4066 57.2072C71.0641 57.4292 71.6807 57.7575 72.232 58.1791C73.2943 59.007 74.2329 59.9825 75.0193 61.0758C75.8191 62.1394 76.5404 63.2597 77.1775 64.428L76.72 64.5453C76.7371 63.8867 76.9006 63.24 77.1985 62.6524C77.3457 62.3481 77.5529 62.0767 77.8077 61.8546C78.0625 61.6325 78.3596 61.4642 78.6812 61.36C80.0181 60.9737 81.2581 61.5797 82.4022 61.9495C84.7403 62.7759 87.0504 63.6718 89.3443 64.6072L91.0643 65.3111L91.4937 65.4911C91.5792 65.5175 91.6584 65.5608 91.7268 65.6185C91.7952 65.6762 91.8512 65.747 91.8917 65.8268C92.0345 66.1116 92.1484 66.41 92.2318 66.7175C92.5758 67.9192 92.7904 69.1409 93.0201 70.3595C93.4688 72.7987 93.836 75.2499 94.182 77.7036L94.4344 79.5449C94.461 79.8161 94.5428 80.0791 94.6748 80.3175C94.8069 80.556 94.9864 80.7648 95.2022 80.9312C95.6305 81.267 96.1742 81.4196 96.7146 81.3557C97.255 81.2918 97.7481 81.0166 98.0862 80.5902C98.3858 80.1077 98.5686 79.5619 98.6201 78.9963C98.6819 78.4039 98.6607 77.8059 98.5572 77.2194L98.1197 73.5296C97.8284 71.0696 97.5957 68.6026 97.3867 66.1334C97.2803 64.899 97.1936 63.6622 97.1453 62.4227C97.1153 61.8035 97.1038 61.1827 97.0955 60.5625C97.0654 59.9364 97.1259 59.3092 97.2752 58.7005C97.2779 58.6921 97.2839 58.6851 97.2917 58.6811C97.2996 58.677 97.3087 58.6762 97.3171 58.6788C97.3256 58.6814 97.3326 58.6873 97.3368 58.6951C97.341 58.7029 97.3419 58.712 97.3394 58.7205L97.3355 58.7334Z" fill="#020288"/>
<path d="M100.434 50.7552C100.919 51.4408 101.346 52.1649 101.713 52.9204C101.896 53.3003 102.028 53.705 102.189 54.0989C102.32 54.5074 102.417 54.9263 102.479 55.351C102.632 56.2216 102.56 57.1167 102.27 57.9518C101.945 58.8071 101.326 59.5192 100.525 59.9609C100.494 59.9777 100.459 59.9882 100.424 59.9917C100.389 59.9953 100.353 59.9919 100.319 59.9817C100.285 59.9715 100.254 59.9547 100.226 59.9323C100.199 59.9098 100.176 59.8822 100.159 59.851C100.143 59.8208 100.133 59.7877 100.129 59.7536L100.128 59.7441C100.016 58.5442 99.7609 57.362 99.3668 56.2231C99.1694 55.6608 98.8581 55.1453 98.4525 54.7087C98.2544 54.511 97.9994 54.3804 97.7232 54.3351C97.5881 54.3519 97.4577 54.3957 97.3397 54.4638C97.2217 54.5319 97.1185 54.6229 97.0362 54.7315C96.3514 55.7191 95.856 56.8253 95.5753 57.9938C95.2267 59.1514 94.9344 60.3352 94.6798 61.512L94.6847 61.3995L94.9964 63.5467C95.0098 63.639 94.9868 63.7329 94.9323 63.8085C94.8777 63.8842 94.7959 63.9357 94.7041 63.9521C94.6123 63.9686 94.5177 63.9487 94.4403 63.8967C94.3629 63.8447 94.3087 63.7647 94.2892 63.6735L94.2877 63.6655C94.0975 62.655 93.9875 61.6311 93.9586 60.6034C93.9039 59.5843 93.9293 58.5674 93.9759 57.554C94.062 55.5294 94.2723 53.512 94.6056 51.5132C94.6071 51.5042 94.6122 51.4961 94.6196 51.4908C94.6271 51.4854 94.6363 51.4833 94.6454 51.4847C94.6536 51.4863 94.6611 51.4907 94.6664 51.4973C94.6717 51.5038 94.6744 51.5121 94.6742 51.5205C94.608 53.5403 94.5752 55.5552 94.5758 57.5653C94.5488 59.5587 94.6881 61.5508 94.9923 63.521L94.2833 63.6398L94.0333 61.4846L94.0321 61.4735C94.0282 61.4395 94.0303 61.4051 94.0382 61.3717C94.3248 60.1731 94.6822 58.9925 95.1085 57.8361C95.4994 56.653 96.0899 55.5455 96.8543 54.5615C96.9613 54.4304 97.094 54.3226 97.2442 54.2446C97.3945 54.1667 97.5591 54.1203 97.7279 54.1084C98.057 54.1617 98.3607 54.3182 98.5951 54.5553C99.0397 55.0004 99.3872 55.5328 99.6156 56.1189C100.109 57.2577 100.467 58.4506 100.682 59.6731L100.285 59.4565C100.93 59.0492 101.427 58.4444 101.7 57.732C101.979 56.9943 102.066 56.1975 101.951 55.4171C101.93 55.0182 101.805 54.6277 101.745 54.2275C101.62 53.8411 101.524 53.4426 101.374 53.0608C101.21 52.6855 101.082 52.2916 100.908 51.9168L100.375 50.791C100.373 50.787 100.372 50.7827 100.371 50.7782C100.371 50.7736 100.371 50.7691 100.373 50.7647C100.374 50.7604 100.376 50.7563 100.379 50.7528C100.382 50.7493 100.385 50.7464 100.39 50.7443C100.397 50.7406 100.406 50.7397 100.414 50.7417C100.422 50.7437 100.429 50.7485 100.434 50.7552ZM95.4458 67.1887C95.7136 67.1794 95.9673 67.0665 96.1535 66.8737C96.3397 66.681 96.4437 66.4235 96.4437 66.1555C96.4437 65.8876 96.3397 65.6301 96.1535 65.4373C95.9673 65.2446 95.7136 65.1317 95.4458 65.1224C95.178 65.1317 94.9242 65.2446 94.738 65.4373C94.5519 65.6301 94.4478 65.8876 94.4478 66.1555C94.4478 66.4235 94.5519 66.681 94.738 66.8737C94.9242 67.0665 95.178 67.1794 95.4458 67.1887ZM96.1896 72.8916C96.4575 72.8823 96.7112 72.7694 96.8974 72.5767C97.0835 72.3839 97.1876 72.1264 97.1876 71.8585C97.1876 71.5905 97.0835 71.333 96.8974 71.1402C96.7112 70.9475 96.4575 70.8346 96.1896 70.8253C95.9218 70.8346 95.6681 70.9475 95.4819 71.1402C95.2957 71.333 95.1917 71.5905 95.1917 71.8585C95.1917 72.1264 95.2957 72.3839 95.4819 72.5767C95.6681 72.7694 95.9218 72.8823 96.1896 72.8916ZM96.8095 78.3466C97.0774 78.3373 97.3311 78.2244 97.5173 78.0317C97.7035 77.839 97.8076 77.5814 97.8076 77.3134C97.8076 77.0454 97.7035 76.7879 97.5173 76.5952C97.3311 76.4024 97.0774 76.2895 96.8095 76.2803C96.5417 76.2895 96.2879 76.4024 96.1017 76.5952C95.9155 76.7879 95.8114 77.0454 95.8114 77.3134C95.8114 77.5814 95.9155 77.839 96.1017 78.0317C96.2879 78.2244 96.5417 78.3373 96.8095 78.3466ZM103.398 48.817C107.528 48.9198 111.652 49.1938 115.766 49.6168C117.825 49.8162 119.875 50.1047 121.919 50.4526C123.999 50.7425 126.034 51.2962 127.974 52.1005C128.228 52.2266 128.466 52.3824 128.683 52.5647C128.884 52.7459 129.073 52.9387 129.251 53.1422C129.593 53.5115 129.964 53.8648 130.334 54.2289C131.098 54.9533 131.787 55.7525 132.392 56.6144C133.548 58.368 134.407 60.3005 134.933 62.3339C135.971 66.3456 136.614 70.4491 136.854 74.5859C136.353 70.4967 135.542 66.4516 134.426 62.4859C133.862 60.5296 133.002 58.6708 131.878 56.9735C131.288 56.1505 130.617 55.3888 129.874 54.7001C129.505 54.3434 129.124 53.9891 128.761 53.6048C128.46 53.2308 128.083 52.9256 127.654 52.7098C125.782 51.9207 123.818 51.3693 121.809 51.0683C119.788 50.6934 117.746 50.4212 115.705 50.1406C111.617 49.6097 107.51 49.2032 103.398 48.817ZM46.723 57.5551C48.6265 57.1522 50.6096 57.3814 52.371 58.2079C54.1371 59.0557 55.6456 60.3586 56.7413 61.9825C57.2887 62.7812 57.7656 63.6259 58.1666 64.5072C58.5464 65.3904 58.8785 66.2932 59.1618 67.2118C59.369 68.1485 59.6251 69.0719 59.7888 70.0111C59.8967 70.9615 60.0271 71.9049 60.1125 72.8503C59.8723 71.9262 59.6767 71.0002 59.4587 70.0811C59.2299 69.1655 58.9201 68.2726 58.6569 67.3718C58.3046 66.5031 57.9934 65.6168 57.5988 64.7725C57.1945 63.9354 56.7194 63.1344 56.1787 62.3783C55.1642 60.8264 53.7751 59.5551 52.1396 58.6817C50.4749 57.8073 48.5984 57.417 46.723 57.5551ZM71.1876 101.117C71.6625 102.381 72.1627 103.632 72.7445 104.846C73.2948 106.073 73.8988 107.275 74.539 108.455C75.8056 110.818 77.2534 113.08 78.8693 115.219C80.4621 117.371 82.2738 119.353 84.2753 121.131L85.8038 122.436C86.3273 122.853 86.8927 123.214 87.4345 123.61L88.2501 124.204C88.5326 124.384 88.828 124.545 89.1168 124.716L90.8585 125.747C88.3595 124.682 86.0265 123.263 83.931 121.534C81.8426 119.787 79.9603 117.807 78.3204 115.634C76.7031 113.45 75.2809 111.129 74.0702 108.697C72.8571 106.273 71.8913 103.734 71.1876 101.117ZM28.1537 112.795C28.1237 116.915 28.0328 121.032 27.9657 125.15C27.91 129.268 27.7706 133.384 27.6766 137.501L27.6739 137.536L27.6681 137.574C27.4165 139.219 27.6265 140.902 28.2748 142.435C28.9628 143.916 30.1975 145.073 31.7201 145.664C32.1115 145.791 32.4945 145.938 32.89 146.053L34.1171 146.291C34.9664 146.416 35.8431 146.508 36.7096 146.603C38.4481 146.787 40.1902 146.952 41.9357 147.096C48.9144 147.683 55.9157 147.984 62.9132 148.14C69.9078 148.301 76.9059 148.07 83.8746 147.448C90.799 146.779 97.8324 145.718 104.123 142.705C104.185 142.676 104.255 142.67 104.32 142.689C104.386 142.708 104.442 142.75 104.478 142.808C104.974 143.581 105.661 144.212 106.472 144.641C107.3 145.077 108.215 145.326 109.15 145.368C110.098 145.404 111.046 145.304 111.966 145.071C112.423 144.937 112.88 144.797 113.334 144.647L114.662 144.096L113.364 144.721C112.917 144.897 112.464 145.063 112.009 145.224C111.08 145.515 110.112 145.662 109.139 145.66C108.14 145.673 107.152 145.444 106.261 144.993C105.369 144.542 104.599 143.882 104.018 143.069L104.372 143.172C101.229 144.81 97.8828 146.027 94.421 146.79C90.9811 147.58 87.4986 148.172 83.9909 148.563C76.9828 149.279 69.9385 149.58 62.8948 149.464C55.8565 149.42 48.8311 148.973 41.8258 148.348C40.074 148.189 38.3238 148.009 36.575 147.808C35.6983 147.704 34.8297 147.607 33.9449 147.469L32.5902 147.195C32.1456 147.063 31.7076 146.894 31.2676 146.742C29.4926 146.014 28.073 144.62 27.3126 142.858C26.6204 141.124 26.4311 139.23 26.7664 137.393L26.7579 137.466C26.9759 133.354 27.1488 129.24 27.4053 125.129C27.65 121.017 27.8715 116.905 28.1537 112.795Z" fill="#020288"/>
<path d="M53.6681 117.632C53.7826 119.896 53.8473 122.16 53.9259 124.424L53.7706 124.188C61.7368 127.044 70.0998 128.64 78.558 128.917C82.7626 129.045 86.9687 128.715 91.1022 127.935L94.18 127.269C95.1966 127.011 96.1825 126.646 97.1866 126.34L98.691 125.869C99.1813 125.683 99.6573 125.461 100.142 125.259L103.043 124.016L102.797 124.388C102.91 123.7 103.18 123.048 103.586 122.481C103.962 121.931 104.431 121.451 104.972 121.063C106.029 120.314 107.244 119.817 108.523 119.612C109.144 119.503 109.771 119.427 110.4 119.384C111.028 119.384 111.654 119.33 112.278 119.376C112.9 119.428 113.525 119.427 114.141 119.522L115.984 119.796L114.128 119.692C113.511 119.661 112.892 119.69 112.277 119.685C111.661 119.681 111.05 119.777 110.44 119.818C109.837 119.901 109.238 120.016 108.646 120.161C107.485 120.437 106.394 120.951 105.441 121.67C104.535 122.35 103.919 123.346 103.716 124.461L103.712 124.492C103.702 124.564 103.674 124.632 103.632 124.692C103.59 124.751 103.534 124.8 103.47 124.833C99.6591 126.857 95.5824 128.334 91.3597 129.221C87.1358 130.076 82.8252 130.426 78.5187 130.265C74.2272 130.108 69.9596 129.553 65.7709 128.606C63.6847 128.118 61.6151 127.566 59.5777 126.913C57.5289 126.288 55.521 125.536 53.5657 124.661L53.5538 124.656C53.5097 124.636 53.4725 124.603 53.4469 124.562C53.4214 124.521 53.4086 124.473 53.4102 124.424C53.4891 122.16 53.5536 119.896 53.6681 117.632Z" fill="#020288"/>
<path d="M33.6642 129.641C34.7437 128.153 36.1204 126.907 37.7072 125.979C39.2952 125.039 41.0143 124.34 42.808 123.906C43.7103 123.723 44.6229 123.596 45.5407 123.525C46.4545 123.435 47.3742 123.42 48.2904 123.48C49.2067 123.5 50.1095 123.685 51.0143 123.783C51.9069 123.975 52.7929 124.192 53.6681 124.425C52.7592 124.344 51.8683 124.195 50.9704 124.118C50.0688 124.089 49.1745 123.965 48.277 124.01C46.4896 124.001 44.7068 124.191 42.9613 124.577C41.2221 124.972 39.5433 125.598 37.9691 126.437C36.3725 127.269 34.9192 128.35 33.6642 129.641ZM103.256 124.425C103.531 125.024 103.856 125.599 104.228 126.144C104.579 126.677 105.031 127.136 105.558 127.496C105.688 127.574 105.825 127.64 105.966 127.695C106.159 127.767 106.333 127.881 106.475 128.028C106.602 128.194 106.686 128.388 106.72 128.594C106.753 128.801 106.735 129.012 106.666 129.209C106.441 129.882 106.074 130.5 105.592 131.021L105.588 131.025L105.568 131.044C105.054 131.529 104.667 132.132 104.44 132.802C104.335 133.118 104.303 133.453 104.344 133.783C104.386 134.113 104.501 134.43 104.681 134.71C105.015 135.253 105.748 135.782 106.029 136.616C106.116 136.831 106.155 137.063 106.143 137.295C106.131 137.527 106.069 137.753 105.96 137.958C105.724 138.338 105.369 138.629 104.95 138.786L105.042 138.722C104.5 139.295 104.086 139.976 103.826 140.721C103.7 141.093 103.661 141.489 103.713 141.877C103.8 142.27 103.984 142.635 104.248 142.938C103.925 142.67 103.683 142.315 103.552 141.915C103.447 141.499 103.44 141.064 103.532 140.645C103.62 140.228 103.77 139.828 103.979 139.456C104.178 139.08 104.413 138.724 104.681 138.394C104.697 138.374 104.717 138.358 104.74 138.346L104.773 138.33C105.064 138.194 105.305 137.97 105.461 137.689C105.522 137.553 105.554 137.405 105.554 137.256C105.555 137.107 105.523 136.959 105.463 136.823C105.238 136.179 104.633 135.78 104.13 135.064C103.887 134.706 103.728 134.298 103.665 133.87C103.616 133.442 103.663 133.008 103.801 132.6C104.078 131.824 104.545 131.129 105.159 130.579L105.136 130.602C105.562 130.153 105.899 129.627 106.129 129.052C106.183 128.941 106.208 128.817 106.203 128.693C106.197 128.569 106.161 128.449 106.098 128.342C106.013 128.247 105.91 128.171 105.794 128.118C105.632 128.042 105.475 127.953 105.328 127.851C104.775 127.434 104.326 126.895 104.016 126.276C103.694 125.689 103.44 125.068 103.256 124.425ZM115.571 125.12C115.551 125.54 115.53 125.954 115.509 126.367C114.676 126.36 113.836 126.326 113.002 126.236C112.021 126.156 111.049 125.993 110.096 125.747C111.049 125.501 112.021 125.338 113.002 125.258C113.856 125.169 114.717 125.134 115.571 125.12ZM115.351 129.756C115.323 130.176 115.31 130.589 115.289 130.995C114.524 130.982 113.767 130.947 113.002 130.865C112.021 130.785 111.049 130.621 110.096 130.375C111.049 130.13 112.021 129.966 113.002 129.886C113.787 129.804 114.566 129.769 115.351 129.756ZM115.144 134.219C115.13 134.639 115.11 135.052 115.096 135.459C114.401 135.438 113.698 135.403 113.002 135.328C112.021 135.248 111.049 135.085 110.096 134.839C111.049 134.593 112.021 134.429 113.002 134.35C113.718 134.274 114.435 134.239 115.144 134.219ZM113.002 139.681C113.65 139.612 114.297 139.577 114.938 139.557C114.917 139.977 114.903 140.383 114.889 140.776C114.263 140.762 113.629 140.728 113.002 140.659C112.021 140.579 111.049 140.416 110.096 140.17C111.049 139.924 112.021 139.76 113.002 139.681ZM91.7719 149.932C91.7719 149.932 79.3627 137.668 74.7299 145.621C70.097 153.575 73.2818 159.409 76.724 163.346C80.9175 168.142 81.1283 169.578 82.3725 170.999C83.6168 172.419 97.6625 189.591 115.169 188.626C125.381 188.063 125.207 182.621 123.289 178.184C121.895 175.041 119.655 172.347 116.819 170.404C111.227 166.495 98.7299 157.444 91.7719 149.932Z" fill="#020288"/>
<path d="M87.5394 146.428C90.2079 146.554 92.8693 146.733 95.5309 146.907L103.511 147.448C106.168 147.659 108.829 147.813 111.488 147.955C112.817 148.037 114.148 148.085 115.477 148.107C116.141 148.106 116.81 148.154 117.471 148.106L118.468 148.058L119.454 147.903C116.828 148.436 114.145 148.631 111.47 148.484C108.797 148.452 106.13 148.292 103.464 148.135C100.802 147.926 98.1403 147.717 95.4857 147.432C92.8312 147.149 90.1796 146.836 87.5394 146.428ZM114.096 168.82C114.021 168.82 113.947 168.795 113.887 168.75C113.827 168.704 113.784 168.639 113.764 168.567C113.744 168.494 113.749 168.416 113.777 168.346C113.805 168.276 113.856 168.217 113.921 168.179C114.46 167.861 127.178 160.394 131.937 161.946C132.023 161.975 132.095 162.037 132.136 162.118C132.177 162.2 132.184 162.294 132.155 162.38C132.127 162.467 132.065 162.539 131.984 162.58C131.903 162.621 131.809 162.629 131.722 162.601C127.26 161.139 114.401 168.695 114.271 168.773C114.218 168.804 114.158 168.82 114.096 168.82Z" fill="#020288"/>
<path d="M190.136 118.184L190.143 118.184L190.168 118.189L220.168 129.307L220.195 129.318C223.177 130.712 226.015 132.398 228.666 134.35C231.344 136.305 233.703 138.662 235.658 141.339C236.665 142.689 237.456 144.187 238.002 145.78C238.53 147.349 238.942 148.955 239.237 150.584C239.906 153.895 239.675 157.324 238.568 160.516C237.948 162.104 237.036 163.562 235.879 164.816C234.714 166.05 233.354 167.083 231.852 167.875C230.361 168.662 228.772 169.246 227.126 169.611C226.307 169.783 225.479 169.906 224.646 169.979L222.211 170.244C215.719 170.939 209.229 171.644 202.731 172.277C189.736 173.548 176.738 174.794 163.711 175.753C160.455 175.996 157.197 176.223 153.935 176.41C150.666 176.573 147.422 176.801 144.099 176.655C142.393 176.515 140.771 175.855 139.451 174.764C138.155 173.718 137.016 172.492 136.067 171.123C134.193 168.411 132.685 165.464 131.58 162.359C131.565 162.318 131.561 162.274 131.567 162.231C131.574 162.187 131.591 162.147 131.618 162.112C131.644 162.077 131.679 162.05 131.719 162.032C131.759 162.014 131.802 162.007 131.846 162.01L131.855 162.011C133.25 162.191 134.662 162.186 136.056 161.998C136.711 161.872 137.405 161.61 137.595 161.054C137.712 160.41 137.585 159.745 137.238 159.19C136.553 157.954 135.752 156.785 134.845 155.701C133.958 154.585 133.04 153.49 132.129 152.387C131.218 151.284 130.313 150.174 129.436 149.04C128.606 147.9 127.602 146.897 126.461 146.068C125.926 145.642 125.298 145.348 124.628 145.211C123.959 145.074 123.266 145.098 122.607 145.279C121.325 145.796 120.279 146.768 119.67 148.009L119.662 148.022C119.64 148.064 119.606 148.097 119.565 148.119C119.523 148.141 119.476 148.15 119.43 148.146C119.383 148.141 119.339 148.123 119.303 148.094C119.266 148.064 119.239 148.024 119.225 147.98C118.775 146.593 118.54 145.145 118.528 143.686C118.524 142.943 118.641 142.204 118.876 141.498C119.118 140.764 119.578 140.122 120.195 139.657L120.16 139.688C120.724 139.193 121.372 138.804 122.074 138.537C122.74 138.259 123.421 138.016 124.113 137.808C125.488 137.388 126.88 137.047 128.277 136.737C131.071 136.124 133.886 135.633 136.706 135.186C142.348 134.301 148.013 133.6 153.683 132.964C165.026 131.692 176.389 130.681 187.774 129.844L187.279 130.314C187.996 125.78 188.927 121.404 189.806 116.962L192.542 103.696L198.039 77.1689L198.294 77.8626C197.679 77.521 197.013 77.2808 196.321 77.1512C195.569 76.9792 194.797 76.8371 194.016 76.7232C192.456 76.4867 190.871 76.3256 189.286 76.1841C186.112 75.9051 182.919 75.7404 179.726 75.5958C173.338 75.3123 166.937 75.1807 160.536 75.1052C147.732 74.9568 134.919 75.0691 122.115 75.2465L122.578 75.0432C122.151 75.5781 121.821 76.1839 121.603 76.8328C121.341 77.5226 121.12 78.2436 120.923 78.9737C120.529 80.4363 120.222 81.9362 119.944 83.4418C119.395 86.4568 118.978 89.506 118.61 92.5609C117.882 98.6735 117.353 104.817 116.897 110.964C116.446 117.114 116.067 123.27 115.762 129.431C115.422 135.583 115.196 141.753 114.965 147.912L114.965 147.918C114.962 147.997 114.928 148.072 114.87 148.126C114.813 148.18 114.736 148.21 114.657 148.208L88.4054 147.526C88.3873 147.525 88.3701 147.517 88.3576 147.504C88.345 147.491 88.3382 147.474 88.3385 147.455C88.3388 147.437 88.3463 147.42 88.3593 147.407C88.3722 147.395 88.3897 147.388 88.4078 147.388L114.667 147.601L114.359 147.897C114.516 141.723 114.693 135.56 114.972 129.388C115.221 123.227 115.54 117.064 115.931 110.897C116.33 104.736 116.8 98.5772 117.473 92.4299C117.814 89.3566 118.203 86.2861 118.73 83.2254C118.997 81.6954 119.295 80.1676 119.688 78.6468C119.887 77.8866 120.109 77.1281 120.388 76.3729C120.656 75.5545 121.075 74.7934 121.624 74.1289C121.678 74.0672 121.745 74.0174 121.82 73.9825C121.895 73.9476 121.976 73.9284 122.058 73.9261L122.087 73.9254C128.499 73.7597 134.907 73.701 141.317 73.6537C147.728 73.613 154.139 73.6201 160.551 73.6749C166.963 73.7402 173.376 73.8614 179.791 74.1357C182.998 74.2793 186.205 74.469 189.414 74.7613C191.018 74.9113 192.622 75.0808 194.229 75.3311C195.032 75.4519 195.837 75.6023 196.645 75.7909C197.53 75.9593 198.377 76.2892 199.142 76.7641C199.246 76.8337 199.327 76.9327 199.374 77.0485C199.421 77.1642 199.432 77.2914 199.407 77.4137L199.397 77.4582L193.789 103.955L190.971 117.2C190.056 121.606 189.073 126.059 188.338 130.437L188.333 130.465C188.313 130.583 188.254 130.691 188.165 130.771C188.076 130.852 187.963 130.9 187.843 130.907C176.472 131.64 165.102 132.546 153.764 133.713C148.097 134.312 142.436 134.975 136.804 135.822C133.99 136.25 131.181 136.721 128.402 137.312C127.013 137.61 125.631 137.94 124.277 138.345C123.602 138.542 122.937 138.775 122.286 139.041C121.651 139.278 121.061 139.622 120.543 140.059L120.533 140.068L120.507 140.09C119.974 140.489 119.576 141.041 119.366 141.673C119.147 142.324 119.035 143.006 119.035 143.693C119.04 145.096 119.258 146.489 119.682 147.826L119.237 147.797C119.909 146.446 121.059 145.395 122.465 144.848C123.189 144.649 123.951 144.624 124.687 144.775C125.423 144.925 126.113 145.248 126.701 145.716C127.87 146.58 128.904 147.613 129.771 148.78C130.648 149.904 131.556 151.006 132.471 152.103C133.386 153.201 134.311 154.292 135.209 155.411C136.142 156.517 136.968 157.71 137.673 158.974C138.089 159.645 138.228 160.451 138.061 161.222C137.908 161.616 137.615 161.939 137.238 162.129C136.897 162.303 136.532 162.426 136.155 162.495C134.713 162.7 133.25 162.714 131.804 162.536L132.079 162.189C133.173 165.239 134.68 168.125 136.56 170.765C137.489 172.072 138.599 173.24 139.858 174.233C141.081 175.226 142.582 175.819 144.154 175.929C147.355 176.031 150.638 175.768 153.881 175.565C157.133 175.341 160.385 175.075 163.634 174.795C176.632 173.643 189.623 172.397 202.609 171.059L222.088 169.082C223.7 168.886 225.369 168.811 226.882 168.491C228.428 168.155 229.923 167.614 231.326 166.882C234.157 165.462 236.375 163.06 237.563 160.124C238.613 157.116 238.839 153.881 238.218 150.756C237.942 149.171 237.556 147.606 237.062 146.075C236.562 144.571 235.831 143.153 234.897 141.873C233.023 139.249 230.754 136.932 228.17 135.003C225.583 133.053 222.809 131.364 219.89 129.959L219.916 129.97L190.119 118.318L190.143 118.322L190.136 118.322C190.118 118.322 190.1 118.315 190.088 118.302C190.075 118.289 190.067 118.272 190.067 118.253C190.067 118.235 190.075 118.218 190.088 118.205C190.1 118.192 190.118 118.185 190.136 118.185L190.136 118.184Z" fill="#020288"/>
<path d="M122.101 74.586C117.059 80.289 114.662 147.904 114.662 147.904H119.456C119.456 147.904 117.452 141.967 120.351 139.874C125.62 134.446 187.808 130.376 187.808 130.376C187.946 129.184 188.876 124.445 190.143 118.253C193.353 102.488 198.718 77.3137 198.718 77.3137C193.263 73.0983 122.101 74.586 122.101 74.586ZM157.31 105.58C151.283 105.58 146.4 104.134 146.4 102.357C146.4 100.58 151.283 99.1335 157.31 99.1335C163.337 99.1335 168.22 100.58 168.22 102.357C168.22 104.134 163.337 105.58 157.31 105.58V105.58ZM52.6093 148.475C51.8109 153.224 51.3926 158.029 51.3586 162.844C51.2834 167.644 51.7429 172.438 52.7284 177.137C53.7821 181.772 55.6095 186.352 58.8224 189.824C60.4621 191.526 62.3638 192.954 64.4552 194.054L66.017 194.923C66.5409 195.208 67.0912 195.449 67.6271 195.714C68.7021 196.238 69.7807 196.756 70.8922 197.211C75.2931 199.118 79.8166 200.765 84.382 202.28C88.944 203.807 93.55 205.208 98.1711 206.561C107.408 209.3 116.734 211.686 126.086 214.073C128.481 214.71 130.724 215.819 132.683 217.336C134.642 218.853 136.278 220.746 137.495 222.905C138.095 223.98 138.593 225.109 138.98 226.278C139.335 227.449 139.602 228.644 139.78 229.855L140.966 236.989C142.598 246.493 144.178 256.006 145.874 265.499L156.066 322.454L155.588 322.041C162.702 322.144 169.835 322.05 176.936 321.669C180.486 321.48 184.032 321.213 187.541 320.751C189.286 320.528 191.019 320.214 192.732 319.812C193.571 319.614 194.397 319.363 195.204 319.059C195.949 318.801 196.636 318.396 197.224 317.869L197.049 318.349C196.542 306.152 195.935 293.954 195.304 281.76C194.663 269.566 193.873 257.382 193.074 245.199C192.238 233.019 191.28 220.845 189.962 208.711C189.302 202.644 188.528 196.59 187.556 190.569C187.062 187.561 186.514 184.559 185.777 181.603C185.421 180.124 184.977 178.667 184.446 177.242C184.181 176.532 183.856 175.846 183.473 175.192C183.313 174.858 183.088 174.558 182.811 174.311C182.535 174.063 182.212 173.873 181.862 173.75L181.857 173.749C181.839 173.746 181.823 173.735 181.813 173.72C181.803 173.705 181.799 173.686 181.803 173.669C181.806 173.651 181.817 173.635 181.832 173.625C181.847 173.615 181.865 173.611 181.883 173.614C182.258 173.732 182.607 173.923 182.907 174.177C183.208 174.43 183.455 174.741 183.633 175.092C184.037 175.747 184.384 176.437 184.67 177.152C185.237 178.576 185.718 180.034 186.109 181.516C186.917 184.47 187.534 187.469 188.098 190.474C189.212 196.49 190.013 202.553 190.762 208.618C192.228 220.754 193.334 232.927 194.317 245.107C195.32 257.286 196.041 269.484 196.732 281.683C197.422 293.882 197.979 306.087 198.404 318.299L198.404 318.321C198.407 318.405 198.393 318.489 198.363 318.568C198.333 318.646 198.287 318.718 198.229 318.779C197.501 319.463 196.635 319.984 195.691 320.309C194.827 320.63 193.944 320.894 193.046 321.101C191.284 321.506 189.503 321.819 187.71 322.039C184.143 322.489 180.57 322.738 176.997 322.91C169.849 323.214 162.708 323.222 155.561 323.038C155.446 323.035 155.336 322.992 155.249 322.917C155.161 322.841 155.103 322.738 155.083 322.625L145.425 265.577C143.813 256.07 142.084 246.583 140.408 237.086L139.113 229.971C138.923 228.798 138.647 227.64 138.286 226.508C137.897 225.393 137.403 224.318 136.812 223.296C135.624 221.258 134.042 219.478 132.157 218.061C130.272 216.644 128.123 215.618 125.836 215.043C116.457 212.842 107.099 210.424 97.8268 207.739C93.1857 206.409 88.5836 204.938 84.007 203.389C79.4305 201.841 74.892 200.159 70.4555 198.206C69.3373 197.741 68.2455 197.21 67.1569 196.671C66.6139 196.398 66.0599 196.152 65.526 195.858L63.933 194.96C61.7569 193.797 59.7887 192.281 58.1086 190.474C54.7843 186.77 52.9938 182.028 51.9865 177.3C51.0407 172.54 50.6671 167.684 50.8737 162.835C51.0236 158.004 51.5588 153.193 52.4743 148.448C52.4778 148.43 52.4883 148.414 52.5034 148.404C52.5186 148.393 52.5372 148.39 52.5551 148.393C52.5728 148.397 52.5883 148.408 52.5984 148.423C52.6085 148.438 52.6124 148.457 52.6093 148.475ZM166.732 331.342C166.732 331.342 160.782 330.722 160.782 333.573C160.782 336.425 161.277 357.253 163.757 357.873C166.236 358.493 238.887 383.536 258.227 363.204C258.227 363.204 271.617 355.765 246.325 347.087C221.034 338.408 205.165 329.73 205.165 329.73C205.165 329.73 181.114 330.474 180.618 332.953C180.122 335.433 183.841 344.359 183.841 344.359C183.841 344.359 167.972 348.078 166.732 331.342Z" fill="#020288"/>
<path d="M166.733 331.687C166.704 331.686 166.675 331.683 166.647 331.676C166.559 331.653 166.483 331.596 166.436 331.517C166.39 331.438 166.376 331.344 166.399 331.256C166.726 329.823 166.768 328.34 166.521 326.891C166.275 325.442 165.745 324.056 164.963 322.812C164.937 322.774 164.918 322.733 164.908 322.689C164.899 322.644 164.898 322.599 164.906 322.554C164.914 322.51 164.93 322.467 164.954 322.429C164.979 322.391 165.01 322.358 165.047 322.332C165.085 322.306 165.126 322.288 165.17 322.278C165.215 322.268 165.26 322.267 165.305 322.275C165.349 322.283 165.392 322.3 165.43 322.324C165.468 322.348 165.501 322.38 165.527 322.417C166.376 323.738 166.95 325.217 167.215 326.766C167.479 328.314 167.429 329.9 167.066 331.428C167.047 331.502 167.004 331.567 166.944 331.614C166.883 331.661 166.809 331.687 166.733 331.687ZM202.19 330.074L202.178 330.073C194.682 329.823 187.354 322.004 187.046 321.672C187.015 321.639 186.991 321.6 186.976 321.557C186.96 321.515 186.953 321.47 186.954 321.425C186.956 321.38 186.966 321.335 186.985 321.294C187.004 321.253 187.031 321.216 187.064 321.185C187.097 321.154 187.136 321.13 187.179 321.115C187.221 321.099 187.266 321.092 187.311 321.093C187.356 321.095 187.401 321.106 187.442 321.124C187.483 321.143 187.52 321.17 187.551 321.203C187.625 321.283 194.994 329.145 202.201 329.386C202.292 329.389 202.377 329.427 202.439 329.493C202.501 329.558 202.535 329.645 202.534 329.736C202.532 329.826 202.495 329.912 202.431 329.975C202.367 330.039 202.28 330.074 202.19 330.074V330.074Z" fill="#020288"/>
<path d="M29.3124 144.815C29.2621 144.805 29.2123 144.805 29.1625 144.795L29.1024 144.735C29.174 144.758 29.2441 144.784 29.3124 144.815ZM51.0922 168.425V168.485C51.1224 168.305 51.1522 168.135 51.1825 167.955C51.1522 168.115 51.1224 168.265 51.0922 168.425ZM188.622 194.665V194.685C188.582 194.695 188.552 194.705 188.512 194.715C188.552 194.695 188.582 194.685 188.622 194.665Z" fill="#020288"/>
<path d="M19.3034 202.03L20.4808 222.74L21.5551 243.453C21.9215 250.357 22.4066 257.257 22.5263 264.17C22.5793 267.627 22.632 271.084 22.5956 274.544L22.5382 279.734C22.4779 281.466 22.4562 283.196 22.3615 284.929C22.36 284.955 22.349 284.979 22.3305 284.998C22.3121 285.016 22.2875 285.026 22.2617 285.027C22.2358 285.028 22.2105 285.019 22.1908 285.003C22.171 284.986 22.1582 284.962 22.1549 284.937C21.9327 283.216 21.7838 281.492 21.5961 279.769L21.1564 274.597C20.8651 271.149 20.6632 267.698 20.4613 264.246C20.0712 257.343 20.0465 250.426 19.9032 243.514L19.4484 222.778L19.0968 202.038C19.0964 202.011 19.1066 201.985 19.1252 201.965C19.1438 201.945 19.1693 201.934 19.1963 201.933C19.2234 201.932 19.2497 201.942 19.2697 201.96C19.2897 201.978 19.3018 202.003 19.3034 202.03V202.03ZM75.5888 241.21L76.1674 262.3L76.6427 283.391C76.8095 290.421 77.0949 297.45 77.0145 304.482C76.9677 307.998 76.9205 311.514 76.7843 315.031L76.5768 320.307C76.4664 322.065 76.3949 323.824 76.2501 325.583C76.248 325.609 76.2363 325.633 76.2173 325.65C76.1983 325.668 76.1734 325.678 76.1475 325.678C76.1216 325.678 76.0965 325.669 76.0773 325.651C76.058 325.634 76.0459 325.61 76.0433 325.584C75.8712 323.828 75.7719 322.071 75.6339 320.314L75.3439 315.043C75.1525 311.528 75.0505 308.013 74.9484 304.498C74.758 297.468 74.9333 290.435 74.9897 283.404L75.1344 262.308L75.3822 241.211C75.3826 241.184 75.3935 241.159 75.4127 241.139C75.4318 241.12 75.4577 241.11 75.4847 241.109C75.5118 241.109 75.5378 241.12 75.5572 241.138C75.5767 241.157 75.588 241.183 75.5888 241.21L75.5888 241.21Z" fill="#020288"/>
<path d="M22.2578 285.05C27.0964 285.05 31.0188 284.31 31.0188 283.397C31.0188 282.484 27.0964 281.744 22.2578 281.744C17.4193 281.744 13.4968 282.484 13.4968 283.397C13.4968 284.31 17.4193 285.05 22.2578 285.05Z" fill="#020288"/>
<path d="M75.8158 325.921C80.6544 325.921 84.5768 325.181 84.5768 324.268C84.5768 323.355 80.6544 322.615 75.8158 322.615C70.9773 322.615 67.0548 323.355 67.0548 324.268C67.0548 325.181 70.9773 325.921 75.8158 325.921Z" fill="#020288"/>
<path d="M134.081 227.569L134.851 237.245L135.518 246.924C135.727 250.151 136.115 253.372 136.083 256.608C136.106 259.858 135.915 263.107 135.511 266.333C135.507 266.357 135.496 266.38 135.477 266.396C135.459 266.413 135.435 266.422 135.411 266.423C135.386 266.424 135.362 266.416 135.342 266.401C135.323 266.386 135.309 266.364 135.304 266.34C134.663 263.153 134.234 259.927 134.018 256.684C133.747 253.459 133.896 250.219 133.867 246.985L133.819 237.283L133.874 227.577C133.875 227.55 133.885 227.525 133.904 227.506C133.922 227.486 133.947 227.475 133.974 227.474C134.001 227.473 134.027 227.482 134.047 227.5C134.066 227.518 134.079 227.543 134.081 227.569ZM211.055 205.412L211.632 226.255L212.105 247.1C212.271 254.048 212.556 260.996 212.475 267.946C212.428 271.421 212.381 274.896 212.244 278.372L212.036 283.585C211.926 285.324 211.854 287.062 211.709 288.8C211.707 288.826 211.695 288.85 211.676 288.868C211.657 288.885 211.632 288.895 211.606 288.895C211.58 288.896 211.555 288.886 211.536 288.869C211.517 288.851 211.505 288.828 211.502 288.802C211.33 287.066 211.231 285.329 211.093 283.593L210.804 278.383C210.613 274.91 210.511 271.436 210.409 267.962C210.219 261.014 210.395 254.063 210.452 247.113L210.599 226.264L210.849 205.413C210.849 205.386 210.86 205.36 210.879 205.341C210.898 205.322 210.924 205.311 210.951 205.311C210.978 205.311 211.004 205.321 211.024 205.34C211.043 205.359 211.055 205.384 211.055 205.412V205.412Z" fill="#020288"/>
<path d="M135.408 266.454C140.246 266.454 144.169 265.714 144.169 264.801C144.169 263.888 140.246 263.148 135.408 263.148C130.569 263.148 126.647 263.888 126.647 264.801C126.647 265.714 130.569 266.454 135.408 266.454Z" fill="#020288"/>
<path d="M211.275 289.138C216.113 289.138 220.036 288.398 220.036 287.485C220.036 286.572 216.113 285.832 211.275 285.832C206.436 285.832 202.514 286.572 202.514 287.485C202.514 288.398 206.436 289.138 211.275 289.138Z" fill="#020288"/>
<path d="M119.454 148.247H114.662C114.571 148.247 114.484 148.21 114.42 148.146C114.355 148.081 114.319 147.994 114.319 147.902C114.319 147.811 114.355 147.724 114.42 147.659C114.484 147.595 114.571 147.558 114.662 147.558H119.454C119.545 147.558 119.632 147.595 119.696 147.659C119.761 147.724 119.797 147.811 119.797 147.902C119.797 147.994 119.761 148.081 119.696 148.146C119.632 148.21 119.545 148.247 119.454 148.247Z" fill="#020288"/>
</svg>
