<svg width="48" height="48" viewBox="0 0 48 48" fill="none" xmlns="http://www.w3.org/2000/svg">
<circle cx="16" cy="16" r="12" fill="#E8F4F1"/>
<path fill-rule="evenodd" clip-rule="evenodd" d="M22.2666 0H24.2666V3.7002H22.2666V0ZM7 10H39L47 19L24 48L0 19L7 10ZM23.3398 12.7226L18 18H29L23.3398 12.7226ZM24 42.5L30 20H17L24 42.5ZM36.5 12H26L31.5 17.6982L36.5 12ZM10 12L15.5747 17.6982L21 12H10ZM3.5 18H13L7.84839 12.7617L3.5 18ZM22 42.5L14.7747 20H3.5L22 42.5ZM43.5 20H32.1054L26 42L43.5 20ZM38.7508 12.8422L34 18H43L38.7508 12.8422ZM41.8231 3.02966L39.2067 5.64612L40.6207 7.06018L43.2372 4.44373L41.8231 3.02966ZM3.2959 4.44385L4.70996 3.02979L7.32617 5.646L5.91211 7.06006L3.2959 4.44385Z" fill="#04A780"/>
</svg>
