<svg width="81" height="80" viewBox="0 0 81 80" fill="none" xmlns="http://www.w3.org/2000/svg">
<path d="M9 53V18.654L40 5.09152L71 18.654V53C71 54.7538 70.2772 57.0117 68.8206 59.457C67.3736 61.886 65.2441 64.4288 62.5381 66.7395C57.1255 71.3616 49.4739 75 40.5 75C31.5218 75 23.6139 71.3581 17.9453 66.7257C15.1123 64.4106 12.8593 61.8644 11.3216 59.4341C9.77195 56.9848 9 54.7358 9 53Z" stroke="#04A780" stroke-width="2"/>
<path fill-rule="evenodd" clip-rule="evenodd" d="M40 8L12 20V40H40V72C52.3407 72 65.8222 61.0909 68 54.5455V40H40V8Z" fill="#04A780"/>
</svg>
